<?xml version="1.0" standalone="no"?>
<!DOCTYPE svg PUBLIC "-//W3C//DTD SVG 20010904//EN"
 "http://www.w3.org/TR/2001/REC-SVG-20010904/DTD/svg10.dtd">
<svg version="1.0" xmlns="http://www.w3.org/2000/svg"
 width="1024.000000pt" height="1024.000000pt" viewBox="0 0 1024.000000 1024.000000"
 preserveAspectRatio="xMidYMid meet">
<metadata>
Created by potrace 1.16, written by Peter Selinger 2001-2019
</metadata>
<g transform="translate(0.000000,1024.000000) scale(0.100000,-0.100000)"
fill="#000000" stroke="none">
<path d="M7070 10229 c0 -4 7 -15 16 -24 13 -13 19 -13 32 -3 14 12 14 10 3
-11 -12 -21 -11 -25 5 -35 11 -5 29 -11 41 -12 12 0 29 -7 38 -14 14 -12 20
-7 15 15 -1 6 8 0 19 -12 23 -25 27 -38 9 -27 -10 5 -10 4 -2 -5 9 -10 17 -10
32 -2 11 6 27 8 35 5 8 -3 18 -1 22 5 3 6 14 11 23 10 12 0 11 -3 -5 -9 -13
-5 -23 -14 -23 -20 0 -6 4 -9 8 -6 4 2 13 1 20 -3 9 -6 8 -12 -5 -24 -14 -12
-22 -13 -33 -6 -12 9 -12 10 3 5 24 -8 21 10 -5 28 -16 12 -26 13 -41 4 -21
-11 -21 -11 1 -28 12 -10 22 -21 22 -25 0 -4 -6 -3 -12 3 -7 5 -26 10 -42 10
-23 0 -26 -2 -12 -10 9 -5 21 -6 28 -2 6 4 8 3 4 -4 -10 -16 11 -24 34 -12 16
8 18 8 14 -4 -7 -18 -53 -27 -76 -15 -12 6 -18 6 -18 0 0 -17 35 -31 51 -20
24 15 34 10 13 -7 -16 -13 -16 -15 -1 -10 10 3 17 0 17 -7 0 -9 2 -9 8 1 10
15 42 5 42 -13 0 -8 8 -16 18 -18 16 -4 16 -5 -1 -6 -10 0 -15 -6 -12 -11 5
-8 12 -7 23 2 13 11 15 11 10 -3 -4 -10 -1 -16 8 -16 22 0 17 13 -13 37 -18
14 -22 21 -11 18 9 -1 16 2 15 7 -1 6 -10 9 -19 8 -10 -2 -17 1 -17 5 3 19 -2
25 -11 12 -7 -11 -10 -11 -10 -2 0 7 -5 10 -11 6 -8 -4 -8 0 0 15 6 11 21 26
32 32 16 8 19 8 15 0 -4 -6 -1 -14 8 -17 9 -3 12 -12 9 -22 -5 -12 -2 -14 11
-9 14 5 17 3 12 -8 -3 -8 0 -15 6 -15 9 0 9 -3 1 -11 -8 -8 -7 -19 4 -40 14
-29 36 -38 48 -20 8 13 39 10 54 -6 8 -9 8 -13 1 -13 -6 0 -9 -4 -5 -10 3 -5
13 -7 23 -4 14 5 14 4 2 -4 -8 -6 -17 -9 -21 -6 -4 2 -10 0 -14 -6 -4 -7 -12
-7 -26 0 -10 6 -20 8 -20 5 -1 -3 -3 -9 -4 -15 -1 -5 -3 -12 -4 -15 0 -3 -7 0
-15 7 -13 11 -12 16 7 31 12 10 16 16 9 12 -7 -4 -19 -1 -27 5 -11 9 -15 9
-16 1 -1 -10 -4 -21 -9 -38 -1 -5 -8 6 -16 22 l-15 30 4 -28 c4 -22 0 -28 -19
-33 -13 -3 -21 -10 -18 -15 3 -5 10 -7 15 -4 5 4 9 1 9 -4 0 -6 8 -11 17 -11
15 0 14 2 -3 16 -16 13 -16 15 -2 10 10 -3 20 -1 23 4 10 16 21 11 21 -8 0
-10 -8 -26 -18 -37 -10 -10 -18 -14 -18 -8 0 13 -26 11 -40 -3 -5 -5 -6 -15 0
-24 8 -12 11 -13 22 -2 8 9 9 12 2 10 -7 -2 -12 0 -13 5 -1 10 2 11 25 3 21
-7 41 -46 23 -46 -5 0 -9 6 -9 13 0 9 -2 9 -8 0 -4 -6 -20 -10 -34 -9 -17 2
-34 -4 -45 -16 -16 -17 -16 -18 0 -12 9 3 17 11 17 16 0 6 6 5 15 -2 8 -7 15
-8 15 -3 0 13 47 8 64 -6 10 -9 15 -8 19 3 3 8 -1 17 -9 20 -15 6 -18 33 -8
60 3 9 10 13 15 10 14 -8 11 -26 -3 -18 -10 5 -10 4 -1 -6 6 -7 10 -18 9 -24
-2 -6 -1 -8 1 -4 3 5 13 4 22 -2 10 -5 21 -6 25 -3 3 3 6 -2 6 -12 0 -15 -3
-16 -12 -7 -17 17 -30 15 -26 -5 1 -10 -1 -23 -5 -30 -4 -6 -1 -18 7 -26 8 -8
12 -18 8 -22 -4 -5 -2 -5 4 -2 17 10 24 -30 8 -44 -9 -7 -12 -20 -8 -33 4 -12
7 -26 7 -33 0 -7 4 -10 9 -7 4 3 8 1 8 -5 0 -5 -5 -11 -12 -13 -7 -3 -5 -7 6
-11 11 -4 15 -3 10 4 -4 8 1 9 17 3 13 -4 30 -7 37 -7 6 0 12 -6 12 -13 0 -8
6 -12 13 -10 6 1 9 1 5 -1 -4 -3 -4 -18 -1 -35 5 -28 4 -29 -14 -20 -13 7 -23
8 -30 1 -6 -6 -14 -5 -22 5 -13 16 -7 36 10 36 6 0 7 -5 3 -11 -4 -8 0 -9 15
-4 14 4 21 2 21 -6 0 -7 2 -10 5 -7 11 10 -7 37 -21 31 -9 -3 -14 0 -12 7 2 7
-1 14 -7 16 -14 5 -37 -48 -26 -59 5 -5 6 -17 4 -28 -5 -16 -8 -17 -22 -7 -14
11 -14 11 -4 -3 9 -10 9 -19 2 -26 -6 -6 -5 -10 5 -10 8 0 13 4 10 9 -3 4 0 8
5 8 6 0 11 8 11 18 0 12 8 18 30 18 17 1 30 -3 30 -8 0 -6 7 -7 16 -4 8 3 13
2 10 -2 -3 -5 1 -9 8 -9 8 0 12 7 8 15 -4 11 -1 13 7 7 8 -4 17 -2 22 6 6 9 9
10 9 2 0 -6 -4 -15 -10 -18 -13 -8 -13 -35 1 -35 5 0 7 4 4 10 -3 6 1 7 9 4 9
-3 16 -1 16 5 0 6 6 11 13 11 6 -1 -1 -12 -18 -26 -16 -13 -22 -22 -12 -18 9
3 17 1 17 -5 0 -6 -5 -11 -11 -11 -5 0 -8 -4 -4 -10 10 -16 33 0 28 20 -3 10
-1 20 4 23 5 3 8 -11 8 -31 -1 -20 2 -41 5 -47 13 -20 19 -45 11 -45 -5 0 -12
11 -15 25 -4 17 -11 23 -19 18 -8 -4 -7 -1 2 10 14 18 5 22 -17 9 -7 -5 -10
-17 -7 -28 6 -17 6 -18 -5 -1 -13 19 -30 23 -30 5 0 -6 3 -8 7 -5 3 4 12 -1
19 -11 12 -15 15 -15 23 -2 6 8 13 12 16 8 4 -4 -5 -14 -19 -23 -14 -10 -23
-21 -20 -27 3 -5 14 -2 24 7 16 14 19 14 32 1 12 -11 18 -12 27 -3 8 8 11 8
11 0 0 -19 -32 -24 -45 -7 -8 12 -14 14 -19 6 -4 -7 -3 -12 3 -12 15 0 7 -55
-11 -73 -14 -14 -18 -14 -37 -1 -15 11 -21 12 -21 3 0 -7 -2 -10 -5 -7 -3 3
-1 16 4 29 5 13 10 19 10 12 1 -7 8 -10 16 -7 11 5 14 2 9 -12 -9 -23 -4 -18
19 18 12 19 14 29 5 34 -6 4 -8 3 -4 -4 3 -6 2 -13 -4 -17 -5 -3 -10 2 -10 12
-1 17 -1 17 -11 0 -6 -9 -14 -15 -19 -12 -5 3 -11 1 -15 -5 -4 -6 -12 -7 -18
-3 -7 4 -6 0 2 -10 7 -9 9 -17 4 -17 -5 0 -10 -6 -10 -14 0 -7 9 -12 21 -11
12 1 30 -3 40 -8 14 -7 22 -5 30 5 6 8 19 17 29 21 18 7 24 27 7 27 -5 0 -10
5 -10 12 0 6 3 8 7 5 4 -4 19 5 34 19 26 25 27 25 22 5 -3 -11 0 -28 7 -36 8
-10 9 -15 2 -15 -6 0 -15 7 -20 16 -6 11 -14 14 -22 9 -10 -6 -7 -11 10 -17
18 -7 21 -11 12 -20 -7 -7 -12 -19 -11 -28 0 -9 4 -5 10 9 7 18 12 21 23 12 8
-7 18 -11 22 -10 37 6 85 -29 83 -60 -1 -13 -2 -12 -6 2 -2 9 -9 17 -14 17 -6
0 -6 -8 1 -20 8 -15 8 -18 -3 -14 -8 3 -14 17 -13 31 1 23 -3 27 -28 28 -44 3
-71 -6 -54 -16 10 -7 10 -9 1 -9 -7 0 -13 -4 -13 -8 0 -5 7 -9 15 -9 8 0 15 5
15 11 0 7 11 13 25 14 14 1 25 -3 25 -8 0 -6 -4 -10 -10 -10 -5 0 -10 -8 -10
-17 0 -15 2 -16 10 -3 6 9 10 10 10 3 0 -6 -4 -14 -9 -17 -14 -9 -20 -45 -9
-53 7 -3 8 -1 4 5 -4 7 -2 12 4 12 6 0 9 4 5 9 -7 12 8 21 43 27 25 4 26 3 9
-10 -11 -8 -26 -12 -35 -9 -15 4 -15 3 -2 -6 12 -8 12 -11 1 -11 -9 0 -11 -7
-8 -21 3 -12 0 -22 -8 -25 -14 -6 -14 -28 0 -41 4 -4 5 -3 2 4 -4 6 0 18 8 26
8 9 12 23 9 31 -5 12 -2 15 10 10 12 -5 15 -2 9 12 -4 12 -3 15 5 10 7 -4 10
-17 6 -32 -8 -29 1 -31 16 -3 8 15 8 24 0 34 -9 11 -7 16 9 24 24 13 34 14 27
3 -3 -5 1 -9 9 -9 8 0 15 4 15 8 0 11 61 0 78 -14 9 -7 9 -13 1 -23 -15 -19
-27 -18 -25 2 0 9 -6 19 -14 22 -12 4 -13 3 -2 -10 11 -13 9 -17 -12 -22 -19
-5 -23 -11 -19 -28 5 -22 5 -22 -9 -4 -10 13 -20 16 -29 11 -12 -8 -12 -6 0 8
7 9 20 17 28 17 8 0 11 5 8 10 -10 15 -35 12 -35 -5 0 -8 -4 -15 -10 -15 -16
0 -12 -27 5 -34 8 -3 15 0 15 7 0 8 4 7 9 -3 6 -8 7 -18 5 -22 -3 -4 -1 -8 5
-8 5 0 12 -8 15 -17 4 -10 23 -29 44 -42 20 -13 34 -20 30 -16 -4 5 -3 14 4
22 9 11 14 11 32 -4 l21 -18 -19 23 c-11 12 -16 22 -12 22 4 0 2 9 -4 19 -14
27 7 39 28 16 16 -16 16 -17 1 -12 -13 4 -15 1 -12 -14 6 -22 23 -36 23 -19 0
6 5 8 11 4 8 -4 7 -9 -2 -15 -7 -4 -10 -11 -6 -15 4 -4 14 2 23 14 12 18 18
20 34 10 10 -7 16 -16 13 -20 -2 -5 -11 -4 -18 2 -11 10 -13 8 -10 -9 2 -12
-3 -25 -13 -32 -16 -10 -16 -10 1 -5 9 3 17 2 17 -3 0 -14 -28 -33 -39 -27 -5
4 -13 1 -17 -5 -4 -7 -3 -9 4 -5 5 3 12 1 14 -6 3 -7 13 -2 26 12 13 14 20 30
17 38 -3 8 3 16 15 19 11 3 20 9 20 13 0 5 3 17 6 27 4 12 3 14 -3 6 -7 -9
-15 -8 -37 6 -15 10 -23 21 -18 25 5 3 13 -1 16 -10 4 -10 13 -13 25 -9 11 3
22 1 26 -5 3 -6 11 -8 16 -4 6 4 6 10 0 18 -8 9 -7 13 4 13 8 0 12 -4 9 -9 -3
-4 0 -8 5 -8 6 0 11 -5 11 -12 0 -6 -3 -9 -6 -5 -9 8 -33 -16 -26 -27 3 -5 0
-6 -6 -2 -6 3 -13 -3 -17 -14 -4 -12 -11 -17 -18 -13 -8 5 -8 2 0 -9 7 -8 11
-18 8 -21 -3 -4 -2 -5 2 -2 3 3 12 0 20 -6 9 -8 17 -8 26 0 8 6 17 8 20 5 4
-4 5 2 3 13 -3 14 2 19 17 20 12 0 16 -1 10 -4 -7 -3 -13 -9 -13 -15 0 -6 6
-5 15 2 9 7 14 19 11 26 -2 7 4 20 15 30 17 15 19 15 14 2 -4 -11 0 -18 12
-21 14 -4 15 -5 2 -6 -9 0 -24 -12 -33 -26 -13 -19 -13 -23 -2 -19 8 3 17 1
21 -5 3 -6 -1 -11 -10 -11 -8 0 -18 -7 -21 -15 -4 -8 -10 -13 -15 -10 -4 3 -5
13 -2 23 6 16 5 16 -14 -1 -11 -9 -23 -14 -28 -10 -4 5 -5 3 -1 -4 4 -7 14 -9
24 -6 15 6 16 5 2 -13 -14 -18 -14 -18 4 -4 11 8 21 14 23 13 9 -7 23 -2 18 7
-3 6 1 10 9 10 11 0 15 -8 12 -30 -2 -17 1 -33 7 -37 6 -3 7 -1 3 5 -4 8 0 12
11 12 10 0 14 4 8 8 -13 9 -16 42 -4 42 16 0 24 -5 25 -15 3 -25 5 -27 17 -16
8 6 17 8 20 4 9 -9 9 -23 0 -22 -25 4 -43 -2 -37 -13 5 -8 2 -9 -11 -4 -18 7
-18 6 0 -14 19 -21 30 -27 20 -10 -11 18 5 32 21 19 11 -9 18 -9 26 -1 9 9 9
12 -1 12 -7 0 -9 5 -6 10 4 6 11 7 17 4 8 -5 9 -1 4 12 -5 10 -9 25 -9 32 0
14 -27 17 -27 2 0 -5 5 -10 10 -10 6 0 10 -5 10 -12 0 -9 -3 -9 -11 -1 -6 6
-19 9 -28 5 -13 -5 -14 -3 -3 10 16 20 -7 45 -26 26 -8 -8 -15 -8 -27 2 -22
18 -19 24 18 42 31 15 74 10 49 -6 -6 -3 -12 -1 -14 5 -2 6 -13 3 -28 -10 -28
-23 -21 -26 28 -11 28 7 33 7 28 -5 -3 -9 1 -15 9 -15 8 0 15 5 15 10 0 6 7
10 16 10 8 0 13 4 9 9 -3 5 0 13 7 17 7 4 10 4 6 -1 -4 -4 -2 -15 5 -23 6 -9
7 -13 2 -10 -6 4 -18 1 -27 -6 -15 -11 -15 -15 0 -47 9 -18 22 -38 29 -44 16
-13 0 -41 -17 -30 -9 6 -9 9 0 15 8 5 6 9 -6 14 -10 4 -15 4 -11 0 4 -4 -9
-17 -29 -29 -32 -20 -34 -23 -16 -27 15 -4 19 -2 15 9 -5 13 -3 13 16 2 12 -8
19 -19 17 -26 -3 -7 0 -15 6 -19 7 -4 8 -3 4 4 -7 12 6 17 17 6 9 -10 -4 -34
-16 -27 -6 3 -7 1 -3 -6 4 -6 12 -9 17 -6 5 4 9 -1 9 -10 0 -9 -4 -13 -10 -10
-14 9 -13 -8 2 -23 9 -9 9 -12 -2 -12 -13 0 -13 -2 0 -10 13 -9 13 -12 -2 -24
-22 -16 -23 -27 -4 -20 10 4 18 -5 25 -28 7 -25 9 -27 10 -10 1 12 7 22 15 22
24 0 46 -12 40 -21 -3 -5 -1 -9 5 -9 5 0 14 6 18 14 6 12 11 9 20 -10 10 -22
10 -24 -3 -13 -11 9 -18 9 -26 1 -9 -9 -8 -12 2 -12 13 0 13 -2 0 -10 -8 -5
-11 -12 -7 -16 3 -4 13 -1 22 6 8 7 15 9 15 6 0 -4 9 -2 19 4 14 7 22 7 27 -2
4 -7 3 -8 -4 -4 -7 4 -12 3 -12 -3 0 -5 -9 -8 -20 -6 -29 6 -34 -12 -5 -19 24
-6 27 -26 4 -26 -6 0 -7 5 -4 10 3 6 2 10 -4 10 -5 0 -17 3 -27 7 -13 5 -15 3
-9 -7 5 -9 4 -11 -4 -6 -6 4 -9 12 -6 17 3 5 -1 6 -9 3 -16 -6 -23 10 -8 19 4
2 0 2 -8 0 -10 -2 -8 2 5 12 18 14 18 16 2 32 -9 10 -17 12 -17 6 0 -6 6 -14
13 -16 7 -3 6 -6 -5 -6 -12 -1 -15 -8 -12 -27 4 -21 1 -25 -10 -21 -9 4 -26
-3 -39 -16 -13 -12 -15 -16 -6 -9 14 11 17 9 23 -14 8 -30 0 -46 -10 -20 -3 9
-11 13 -16 10 -6 -4 -5 -10 3 -15 20 -13 -7 -12 -30 0 -13 7 -18 6 -18 -4 0
-7 6 -11 14 -8 7 3 13 0 13 -6 0 -9 5 -9 20 -1 17 9 20 8 20 -12 0 -19 2 -20
10 -8 7 10 10 11 11 3 3 -28 4 -32 12 -39 4 -4 7 -12 7 -18 0 -6 -5 -5 -12 2
-7 7 -17 12 -22 12 -6 0 0 -7 12 -16 12 -8 20 -20 17 -25 -3 -5 1 -6 10 -2 12
4 13 8 5 13 -17 10 4 22 24 14 11 -4 15 -13 10 -26 -4 -14 -2 -18 5 -14 6 4
11 2 11 -3 0 -6 5 -11 10 -11 6 0 5 8 -2 21 -11 17 -10 22 5 30 18 10 18 11 0
31 -10 11 -17 22 -15 24 1 2 2 12 2 22 0 14 -2 15 -9 2 -6 -8 -7 -27 -4 -42 3
-17 1 -28 -6 -28 -6 0 -10 10 -8 23 2 18 -2 21 -20 19 -13 -2 -23 0 -24 5 0 4
-2 16 -4 26 -3 17 14 22 57 18 12 -2 16 3 12 12 -3 8 -1 18 5 22 6 3 11 0 11
-9 0 -21 30 -13 51 15 15 20 20 22 31 11 11 -11 10 -12 -6 -6 -13 5 -17 4 -13
-3 4 -6 1 -14 -5 -16 -10 -4 -10 -7 0 -15 11 -7 11 -10 -3 -15 -9 -4 -13 -3
-10 3 3 5 -4 8 -15 7 -10 -1 -22 -8 -25 -15 -3 -10 0 -12 10 -9 8 4 17 2 21
-4 4 -6 11 -6 20 2 8 6 14 8 14 4 0 -4 -8 -14 -17 -21 -16 -12 -15 -13 12 -8
16 3 27 2 23 -1 -3 -4 -12 -7 -20 -9 -7 -1 -19 -6 -27 -10 -11 -7 -13 -4 -9
12 4 12 3 24 -2 27 -12 7 -19 -32 -8 -43 6 -6 17 -8 24 -5 10 4 12 0 8 -11 -3
-9 -10 -13 -15 -10 -5 3 -9 1 -9 -4 0 -6 7 -13 16 -16 8 -3 13 -2 11 2 -3 4 4
16 15 27 19 20 19 20 14 -8 -3 -19 0 -30 10 -34 7 -3 11 -10 7 -16 -3 -6 -1
-7 6 -3 8 5 9 12 2 20 -7 8 -5 12 9 13 14 1 19 -4 17 -20 -1 -12 -6 -25 -12
-29 -5 -4 1 -8 13 -8 15 0 22 5 19 13 -2 6 3 17 12 23 13 10 13 14 1 30 -12
16 -12 17 0 7 8 -7 19 -13 25 -13 5 1 0 9 -13 20 -13 11 -18 21 -12 25 5 3 10
2 10 -4 0 -7 8 -7 26 -1 32 12 34 12 34 -1 0 -5 -4 -8 -9 -5 -5 3 -14 -1 -21
-9 -10 -12 -9 -15 4 -15 9 0 16 -4 16 -10 0 -5 -6 -7 -13 -4 -8 3 -20 -2 -27
-11 -7 -8 -9 -15 -4 -15 5 0 2 -5 -6 -10 -9 -6 -10 -10 -3 -10 6 0 19 7 27 16
12 12 16 12 16 2 0 -11 2 -11 9 0 6 11 10 9 14 -7 4 -18 2 -19 -14 -10 -15 7
-19 6 -19 -5 0 -9 -7 -12 -20 -9 -12 3 -20 0 -20 -6 0 -7 -4 -10 -8 -7 -4 2
-8 -4 -9 -14 -1 -11 3 -23 9 -26 7 -5 9 -2 5 8 -3 9 0 21 6 27 17 17 31 13 17
-4 -7 -9 -10 -18 -7 -22 4 -3 9 2 13 11 3 9 10 13 16 10 5 -3 5 -11 -2 -19 -9
-10 -7 -13 6 -11 9 1 20 10 26 19 7 13 5 15 -6 11 -7 -3 -17 -1 -21 5 -3 6 -1
12 4 12 6 1 17 2 24 3 18 3 38 -15 30 -27 -4 -6 0 -8 11 -4 9 4 15 3 12 -2 -3
-5 0 -14 7 -20 11 -8 13 -4 10 22 -3 24 -2 28 6 17 9 -12 11 -12 16 2 4 10 15
15 28 13 11 -3 27 1 34 7 11 9 13 8 11 -3 -4 -17 42 -14 55 4 6 8 7 7 4 -4 -4
-12 1 -16 19 -16 28 0 29 1 8 26 -10 11 -24 17 -33 13 -14 -5 -14 -4 1 11 18
18 29 22 27 10 -3 -21 2 -26 12 -13 9 13 10 12 5 -2 -5 -18 7 -31 37 -35 23
-4 22 6 -3 27 -20 17 -20 18 6 18 16 0 23 -5 20 -14 -3 -7 2 -18 10 -24 9 -9
14 -9 14 -2 0 6 7 9 15 6 25 -10 5 -26 -23 -19 -21 5 -23 4 -14 -8 7 -8 9 -17
5 -20 -3 -4 -1 -7 5 -7 5 0 12 6 15 13 3 8 10 6 22 -8 9 -11 13 -14 9 -6 -5
11 -3 13 9 8 9 -3 19 -1 23 5 5 7 10 3 15 -10 5 -12 14 -22 21 -21 10 0 10 2
1 6 -7 2 -13 9 -13 14 0 6 6 7 13 3 8 -5 8 -2 -2 9 -8 10 -23 15 -36 13 -18
-3 -22 0 -22 20 0 14 4 23 11 21 6 -3 10 -9 9 -15 -2 -6 4 -9 12 -6 8 4 15 12
15 19 0 15 59 39 61 24 2 -12 6 -28 9 -34 1 -3 3 -9 4 -14 3 -23 14 -20 12 4
-2 15 1 24 8 22 9 -3 12 -29 7 -71 -1 -5 -8 -3 -16 4 -13 11 -14 10 -9 -4 7
-20 20 -21 31 -2 9 15 54 41 66 38 4 -1 7 3 7 9 0 6 7 9 15 5 9 -3 19 3 25 14
14 26 29 25 40 -2 8 -21 9 -21 10 -3 1 18 1 19 11 2 12 -21 2 -40 -18 -33 -8
4 -11 1 -8 -5 4 -6 13 -8 20 -5 8 3 15 0 18 -7 2 -6 4 5 5 26 1 30 -3 40 -21
47 -18 7 -19 9 -4 9 10 1 16 5 12 10 -3 5 -2 12 3 15 4 2 9 -5 9 -16 1 -12 8
-25 15 -29 7 -5 9 -9 4 -9 -6 0 -5 -5 1 -11 8 -8 16 -8 30 0 16 10 15 11 -7 5
-20 -5 -23 -4 -12 7 6 7 12 17 12 22 0 4 -6 5 -12 1 -7 -4 -9 -3 -5 1 4 5 14
10 22 12 51 10 72 22 72 38 0 19 -6 19 -31 -2 -20 -17 -20 -17 -6 1 14 18 13
19 -3 13 -10 -4 -16 -3 -12 2 3 6 13 9 23 9 9 0 25 3 35 7 11 4 17 3 17 -5 0
-8 9 -10 24 -6 25 6 46 -9 24 -17 -7 -2 -10 -8 -6 -12 4 -4 15 1 25 10 12 12
18 14 21 6 2 -7 -4 -19 -14 -27 -18 -14 -18 -15 1 -6 22 10 45 6 45 -10 0 -5
-9 -6 -20 -3 -11 3 -20 2 -20 -3 0 -11 40 -9 60 3 8 5 11 3 8 -6 -3 -8 -11
-13 -17 -12 -6 2 -11 -2 -11 -8 0 -6 -5 -7 -12 -2 -21 13 -47 13 -54 1 -5 -8
-2 -9 10 -5 14 6 17 3 12 -9 -5 -14 -4 -15 9 -4 12 10 18 9 32 -7 10 -10 15
-14 11 -9 -13 17 -9 22 17 22 14 0 25 -4 25 -9 0 -5 -7 -6 -16 -3 -14 5 -15 4
-5 -8 7 -8 21 -13 31 -11 18 4 19 2 4 -20 -10 -15 -21 -22 -32 -18 -13 6 -13
7 3 13 13 5 15 9 7 14 -7 4 -17 4 -23 1 -5 -4 -19 1 -29 10 -18 16 -20 16 -26
1 -3 -9 -9 -14 -13 -12 -4 3 -13 0 -21 -6 -13 -8 -12 -9 2 -5 9 3 19 3 23 -1
9 -9 29 -9 35 0 3 4 17 -3 32 -17 18 -17 29 -20 36 -13 8 8 14 5 20 -13 7 -19
6 -26 -7 -31 -13 -5 -13 -7 -1 -7 8 0 22 4 30 9 10 6 11 10 3 10 -7 0 -13 5
-13 12 0 6 3 8 7 5 3 -4 12 -2 19 3 15 13 46 -14 38 -34 -9 -23 14 -28 34 -8
15 15 20 16 31 5 7 -8 9 -22 5 -35 -5 -17 -3 -20 12 -14 18 6 18 5 0 -9 -22
-17 -14 -20 13 -5 14 7 23 4 37 -13 13 -15 14 -18 3 -9 -14 11 -18 9 -23 -13
-4 -15 -11 -23 -17 -19 -8 4 -8 9 1 14 8 5 7 9 -5 13 -11 5 -14 3 -9 -5 5 -8
2 -9 -11 -4 -15 5 -16 4 -6 -8 17 -21 6 -35 -22 -29 -22 5 -22 5 -2 -10 12
-10 22 -12 26 -5 8 13 56 -34 56 -55 0 -17 -23 -31 -37 -22 -4 3 -13 -2 -20
-10 -7 -8 -17 -12 -24 -8 -6 3 -8 2 -3 -2 11 -13 -23 -44 -41 -38 -14 4 -15 3
-2 -6 11 -7 20 -5 34 7 18 16 19 16 13 0 -4 -10 -2 -18 3 -18 6 0 10 5 10 10
0 6 7 10 15 10 8 0 15 4 15 10 0 5 7 7 15 4 11 -5 3 -13 -27 -29 -31 -17 -42
-29 -40 -42 2 -10 7 -19 12 -21 10 -4 0 -42 -11 -42 -5 0 -6 6 -3 14 3 8 1 17
-5 21 -7 3 -8 0 -5 -9 4 -10 -1 -18 -11 -22 -13 -5 -14 -8 -3 -15 11 -7 11
-12 0 -29 -10 -17 -11 -25 -1 -36 6 -8 9 -17 5 -21 -3 -3 -6 -1 -6 6 0 7 -5 9
-10 6 -6 -4 -9 -1 -8 6 2 6 -3 14 -9 16 -7 3 -13 -2 -13 -11 0 -8 -10 -22 -22
-30 -17 -12 -25 -13 -37 -3 -14 10 -14 10 -3 -5 10 -13 10 -17 0 -21 -7 -3 -4
-5 7 -4 11 2 26 6 33 10 7 5 12 4 12 -2 0 -6 4 -11 8 -11 5 0 9 7 9 15 0 8 -4
12 -9 9 -4 -3 -8 -1 -8 5 0 5 3 12 8 14 10 7 32 -19 24 -27 -3 -4 0 -11 8 -16
12 -8 10 -10 -7 -10 -16 0 -21 -4 -17 -15 4 -8 9 -13 13 -11 4 3 7 -5 8 -17 0
-12 -1 -16 -4 -9 -3 6 -12 12 -20 12 -9 0 -13 3 -10 7 7 7 -22 32 -38 32 -5 0
-2 -4 9 -10 15 -9 16 -13 5 -20 -11 -7 -11 -9 -1 -9 7 0 10 -5 7 -10 -4 -6
-12 -7 -18 -4 -7 4 -9 4 -5 -1 4 -4 2 -15 -4 -24 -7 -9 -8 -13 -4 -9 5 4 16 2
24 -5 13 -10 15 -9 10 10 -6 22 16 41 27 23 4 -6 1 -10 -5 -10 -6 0 -10 -8 -8
-17 2 -10 8 -18 15 -18 6 0 15 -4 20 -8 4 -5 1 -7 -7 -5 -8 2 -15 -4 -16 -12
-2 -30 -4 -32 -19 -20 -13 11 -13 14 2 26 10 7 16 14 13 14 -45 10 -48 9 -43
-10 3 -11 9 -23 14 -26 16 -9 10 -24 -8 -21 -26 4 -44 17 -38 27 3 4 -1 10 -8
13 -10 4 -13 -2 -9 -19 2 -13 8 -21 13 -18 5 3 9 -2 9 -10 0 -10 -6 -13 -17
-9 -11 4 -14 3 -9 -5 11 -18 -5 -14 -21 6 -11 13 -11 10 1 -10 12 -21 13 -28
2 -37 -7 -6 -15 -10 -17 -8 -2 1 2 -4 10 -10 8 -7 11 -13 6 -13 -5 0 -4 -5 3
-12 7 -7 12 -19 12 -27 -1 -13 -4 -12 -15 3 -8 11 -15 15 -15 9 0 -6 6 -16 14
-22 16 -13 29 -54 15 -45 -5 3 -9 0 -9 -6 0 -8 -6 -8 -20 0 -14 7 -20 7 -20 0
0 -5 3 -10 8 -10 4 0 13 -4 21 -9 12 -8 12 -11 -1 -24 -10 -10 -20 -12 -29 -6
-11 7 -11 9 4 9 9 0 17 5 17 11 0 5 -4 7 -10 4 -5 -3 -10 -1 -10 4 0 6 -7 11
-15 11 -8 0 -15 5 -15 11 0 5 5 7 11 3 8 -4 8 0 0 15 -7 11 -14 21 -17 21 -3
0 -3 -4 0 -9 4 -5 3 -16 0 -25 -5 -13 -9 -14 -21 -5 -11 9 -17 9 -26 -1 -10
-10 -8 -12 6 -7 12 5 16 3 11 -5 -5 -8 0 -9 15 -5 15 3 21 1 18 -6 -6 -18 34
-71 43 -57 5 8 10 8 14 2 3 -5 -1 -12 -9 -16 -8 -3 -17 -1 -20 5 -4 5 -12 6
-18 2 -21 -13 -36 -11 -30 4 3 8 12 12 19 9 8 -3 11 0 7 10 -3 8 -8 12 -11 9
-3 -2 -12 4 -20 16 -8 11 -20 18 -28 15 -8 -3 -14 -2 -14 3 0 13 -40 21 -41 8
0 -7 -4 -3 -9 8 -6 13 -9 15 -9 5 0 -8 4 -22 9 -30 6 -10 10 -11 10 -2 0 6 4
12 10 12 6 0 6 -9 1 -22 -9 -26 -42 -31 -49 -8 -4 13 -3 13 11 2 13 -11 15
-10 10 7 -3 12 -9 21 -14 21 -16 0 -22 -30 -9 -45 7 -8 8 -15 2 -15 -15 0 -33
26 -24 35 4 5 1 5 -6 0 -10 -5 -11 -10 -3 -18 15 -15 14 -30 -1 -21 -7 4 -8 3
-4 -4 4 -6 13 -9 21 -5 11 4 13 0 8 -13 -3 -11 -10 -21 -14 -24 -4 -3 -1 -11
7 -18 8 -7 14 -8 14 -2 0 5 4 10 9 10 5 0 7 -9 4 -20 -3 -11 -10 -20 -15 -20
-6 0 -8 -7 -4 -15 3 -8 1 -15 -4 -15 -23 0 -7 -21 28 -36 31 -13 43 -13 75 -3
20 7 37 16 37 21 0 5 -5 6 -12 2 -7 -4 -8 -3 -4 5 6 9 11 9 23 -1 10 -8 11
-14 4 -16 -18 -6 -2 -22 17 -16 9 3 7 -1 -5 -8 l-23 -13 23 -14 c20 -13 21
-13 8 2 -11 14 -11 17 0 18 8 1 18 1 22 0 5 -1 5 4 1 10 -5 9 -2 10 10 6 10
-4 20 -7 22 -7 2 0 4 -6 4 -14 0 -17 67 -29 91 -15 23 12 24 25 4 33 -8 3 -21
-4 -30 -17 -12 -18 -15 -19 -15 -4 0 9 5 17 11 17 6 0 9 9 6 19 -2 10 0 25 5
32 7 11 8 9 6 -6 -2 -14 2 -20 14 -19 10 1 17 -1 16 -5 -2 -18 4 -21 25 -10
l22 11 -23 -21 c-12 -12 -19 -27 -16 -33 4 -7 10 -5 16 6 13 24 33 20 53 -11
16 -24 16 -26 1 -20 -11 4 -15 3 -11 -4 4 -6 13 -8 21 -5 8 3 14 -1 14 -10 0
-9 -5 -12 -12 -8 -7 4 -8 3 -4 -4 10 -16 26 -15 26 2 0 8 8 13 18 11 9 -1 16
-8 15 -14 -3 -10 4 -13 23 -10 4 0 11 -5 16 -13 7 -9 8 -8 5 7 -2 11 -9 19
-15 18 -7 -2 -12 2 -12 7 0 6 7 10 15 10 8 0 15 -5 15 -11 0 -5 4 -8 9 -4 5 3
13 0 17 -6 4 -8 3 -9 -4 -5 -7 4 -12 1 -12 -8 0 -10 6 -13 18 -10 13 5 14 4 3
-4 -8 -6 -10 -12 -3 -16 6 -4 15 1 20 10 6 10 12 12 16 6 3 -5 -2 -13 -11 -16
-14 -6 -13 -10 8 -32 l23 -25 -29 -24 c-17 -13 -24 -24 -17 -25 6 0 12 5 12
11 0 5 5 7 10 4 6 -4 8 -10 5 -15 -3 -4 -2 -10 2 -13 5 -2 3 -2 -4 -1 -16 4
-25 -23 -9 -29 31 -12 48 34 21 56 -6 6 -6 10 3 14 6 2 12 15 12 28 0 13 -6
26 -12 28 -10 4 -10 6 0 6 9 1 12 364 12 1781 l0 1780 -1323 0 c-728 0 -1327
-3 -1330 -7 -4 -3 -1 -13 6 -22 11 -14 10 -14 -5 -2 -10 7 -15 17 -12 22 3 6
-100 8 -250 7 -141 -1 -256 -5 -256 -9z m1445 -1457 c1 -4 6 -17 13 -29 8 -15
9 -22 1 -25 -7 -2 -4 -10 7 -18 11 -9 15 -10 10 -2 -10 16 6 15 30 -3 25 -19
40 -19 24 0 -7 8 -18 15 -25 15 -6 0 -18 11 -25 25 -12 22 -12 28 1 40 13 13
15 13 15 -4 0 -11 -4 -17 -9 -14 -5 3 -8 0 -5 -8 3 -8 9 -14 14 -14 6 0 23
-13 38 -30 23 -24 29 -27 37 -15 9 13 10 13 6 0 -2 -8 -12 -14 -21 -14 -16 2
-19 -6 -17 -36 0 -10 -1 -11 -5 -2 -8 17 -31 15 -38 -4 -4 -12 -2 -15 9 -11 8
4 17 2 20 -4 4 -5 11 -6 17 -3 7 5 8 2 3 -6 -6 -10 -4 -12 10 -6 15 6 16 4 5
-10 -12 -14 -15 -13 -30 7 -11 13 -20 18 -24 11 -3 -6 0 -12 6 -15 7 -2 10 -7
7 -11 -3 -3 -14 0 -24 8 -16 12 -17 17 -6 44 9 21 18 29 29 25 10 -4 13 -2 8
5 -10 17 -23 15 -43 -6 -27 -27 -24 -49 8 -82 16 -15 29 -36 29 -45 0 -9 5
-13 10 -10 15 9 12 -5 -5 -22 -12 -12 -13 -18 -4 -30 11 -12 9 -12 -15 -2
l-27 13 23 19 c17 14 18 17 5 13 -14 -5 -16 -2 -8 13 8 14 5 23 -16 42 -14 13
-23 19 -19 12 3 -6 1 -15 -5 -19 -8 -4 -7 -9 2 -15 8 -4 16 -3 20 3 4 5 9 6
12 2 3 -5 -1 -15 -9 -22 -8 -7 -14 -8 -14 -2 0 5 -4 10 -10 10 -5 0 -10 -7
-10 -15 0 -8 7 -15 15 -15 8 0 15 -4 15 -9 0 -5 -6 -8 -12 -7 -30 6 -44 18
-45 36 -1 11 1 18 5 16 4 -3 8 4 8 15 0 10 -4 19 -8 19 -4 0 -8 5 -8 10 0 6 6
9 13 8 7 -2 13 11 15 35 2 29 7 37 18 33 8 -3 14 -1 14 4 0 6 -7 10 -15 10 -8
0 -15 5 -15 11 0 5 -4 7 -10 4 -5 -3 -7 0 -4 8 3 8 1 18 -5 22 -6 3 -11 0 -11
-7 -1 -7 -8 -1 -16 15 -18 33 -10 50 18 41 15 -5 19 -3 13 7 -5 8 -4 11 1 6 5
-5 9 -12 9 -15z"/>
<path d="M5203 8545 c15 -68 338 -1200 477 -1675 40 -135 74 -254 77 -265 3
-11 20 -69 38 -130 18 -60 54 -182 80 -270 27 -88 54 -171 62 -185 8 -14 12
-18 10 -9 -3 8 -44 150 -91 315 -47 164 -104 362 -126 439 -23 77 -56 192 -75
255 -18 63 -70 239 -115 390 -77 259 -102 344 -120 415 -14 55 -61 218 -105
365 -23 80 -55 190 -70 245 -15 55 -32 107 -37 115 -7 12 -8 11 -5 -5z"/>
<path d="M5142 7949 c-1 -27 3 -41 13 -45 8 -4 15 -11 15 -16 0 -6 -6 -8 -13
-5 -8 3 -14 -3 -14 -14 -1 -10 3 -19 8 -19 6 0 8 4 4 9 -3 5 4 12 15 16 12 4
17 11 13 18 -4 7 1 5 11 -3 16 -13 20 -12 31 3 13 18 31 24 20 7 -3 -5 1 -10
10 -10 15 0 14 -3 -2 -30 -9 -16 -24 -30 -33 -29 -10 0 -11 2 -2 6 6 2 12 11
12 19 0 9 5 12 12 8 6 -4 8 -3 4 4 -10 17 -59 7 -74 -17 -10 -15 -11 -21 -3
-21 7 0 9 -5 6 -11 -5 -6 -12 -4 -21 8 -11 15 -13 -61 -14 -512 0 -291 -1
-615 -1 -720 -2 -564 5 -1525 10 -1490 5 32 11 41 29 43 25 4 28 12 10 31 -10
11 -10 13 0 7 6 -4 12 -2 12 4 0 6 5 8 10 5 6 -4 8 -15 5 -25 -8 -24 11 -35
23 -14 5 9 14 14 20 10 11 -7 11 -23 -2 -46 -4 -8 6 1 22 20 28 32 34 59 11
44 -5 -3 -7 -10 -4 -15 4 -5 2 -9 -4 -9 -31 0 -18 34 18 45 18 5 22 4 17 -6
-4 -8 9 4 28 26 35 40 47 63 24 49 -7 -4 -8 -3 -4 5 4 6 11 9 16 6 4 -2 72 79
151 181 79 102 194 249 255 326 l111 139 -44 152 c-24 84 -71 247 -104 362
-33 116 -123 422 -199 680 -76 259 -148 507 -160 552 -14 51 -26 80 -33 76 -6
-3 -7 -1 -3 5 4 7 -1 39 -10 73 -15 54 -20 60 -40 56 -16 -3 -21 0 -17 10 4 9
0 11 -13 7 -15 -5 -16 -4 -5 4 10 7 21 7 33 1 13 -7 18 -6 18 4 0 18 -35 28
-48 15 -14 -14 -33 0 -30 20 5 27 -46 28 -71 1 l-20 -22 4 26 c3 14 1 28 -3
31 -5 3 -9 -13 -10 -35z"/>
<path d="M8528 5912 c-58 -42 -177 -126 -264 -187 -196 -137 -332 -233 -644
-455 -135 -96 -315 -223 -400 -284 -171 -121 -475 -339 -642 -460 -60 -42
-108 -80 -108 -83 0 -33 539 -1748 710 -2258 44 -132 80 -241 80 -243 0 -2
-17 10 -37 26 -21 16 -108 80 -193 142 -516 377 -794 579 -934 680 -87 63
-231 167 -320 232 -88 64 -163 114 -166 111 -3 -2 4 -9 14 -15 10 -6 27 -19
37 -29 11 -11 19 -16 19 -11 0 4 4 3 8 -3 9 -13 136 -109 302 -228 74 -53 212
-153 305 -222 169 -124 771 -562 912 -662 40 -29 73 -51 73 -49 0 7 -69 226
-158 501 -49 154 -144 453 -210 665 -183 586 -340 1093 -377 1215 -19 61 -36
117 -40 126 -4 11 27 39 113 102 112 82 624 447 776 554 38 26 162 116 277
198 114 83 294 211 400 285 106 74 246 173 313 221 67 47 151 106 189 133 37
26 67 52 67 57 0 6 5 7 10 4 6 -3 10 -1 10 4 0 19 -12 12 -122 -67z"/>
<path d="M10196 5978 c13 -20 -83 -33 -99 -13 -5 6 -6 2 -3 -9 4 -12 0 -23
-11 -32 -17 -12 -16 -13 5 -7 13 3 22 1 22 -6 0 -7 5 -9 11 -5 8 4 8 9 0 17
-6 6 -11 16 -11 22 0 5 5 3 10 -5 8 -12 11 -13 19 -1 5 8 11 9 15 3 3 -6 1
-14 -5 -17 -5 -4 -8 -12 -6 -19 3 -6 -6 -12 -19 -12 -13 -1 -24 3 -24 9 0 6
-3 7 -7 4 -3 -4 1 -15 10 -25 10 -11 13 -23 8 -31 -6 -9 -11 -10 -15 -2 -4 6
-2 11 4 11 6 0 8 5 5 11 -4 6 -9 8 -13 5 -3 -3 -11 2 -19 12 -14 16 -14 16 -8
-3 7 -23 8 -25 6 -42 0 -7 -6 -13 -12 -13 -5 0 -7 5 -4 11 4 5 0 18 -8 27 -8
9 -17 26 -20 37 -3 11 -5 6 -4 -12 1 -22 6 -33 17 -33 8 -1 2 -8 -15 -16 -16
-8 -22 -12 -12 -9 10 3 25 -2 33 -10 8 -8 22 -12 32 -9 14 5 14 4 3 -4 -10 -7
-21 -7 -35 0 -15 8 -21 8 -24 -1 -3 -9 -7 -9 -18 0 -8 6 -14 7 -14 2 0 -5 11
-15 25 -21 16 -8 25 -8 25 -1 0 5 6 4 14 -3 9 -9 10 -15 3 -20 -6 -4 -14 -5
-18 -2 -4 2 -9 -5 -12 -15 -3 -13 0 -18 8 -15 7 3 16 1 20 -5 3 -7 0 -8 -9 -5
-12 5 -14 -1 -11 -25 3 -23 -1 -32 -16 -36 -10 -4 -19 -13 -19 -21 0 -8 -7
-17 -15 -20 -20 -8 -19 -17 3 -30 15 -10 17 -7 19 19 3 35 10 44 24 30 7 -7 5
-14 -5 -22 -16 -14 -10 -45 7 -34 6 3 7 1 3 -5 -4 -7 -16 -12 -27 -12 -11 0
-18 -4 -15 -8 2 -4 -7 -8 -21 -7 -14 0 -28 -6 -31 -14 -3 -10 0 -11 9 -5 12 6
12 5 1 -8 -8 -9 -19 -15 -27 -12 -7 3 -16 1 -19 -5 -12 -19 12 -20 49 -1 34
17 36 17 21 1 -17 -19 -22 -36 -7 -26 5 3 13 0 17 -6 4 -7 3 -9 -4 -5 -6 3
-13 2 -16 -3 -9 -14 20 -21 35 -8 11 10 11 9 0 -5 -10 -13 -18 -15 -31 -8 -22
12 -40 -5 -40 -38 0 -20 -4 -23 -21 -19 -12 3 -28 -2 -39 -13 -10 -10 -20 -16
-22 -14 -3 2 -5 -2 -5 -9 0 -14 64 -17 85 -4 7 5 12 3 12 -5 0 -10 2 -11 8 0
5 7 8 -6 7 -32 -2 -37 1 -43 14 -38 14 5 14 4 1 -13 -14 -17 -13 -18 3 -12 15
6 16 4 7 -13 -6 -11 -13 -20 -16 -20 -3 0 -2 5 1 10 3 6 -1 10 -9 10 -10 0
-13 6 -10 15 4 8 2 15 -3 15 -5 0 -7 14 -5 31 4 30 3 31 -21 25 -16 -4 -27 -1
-30 7 -4 9 -6 9 -6 0 -1 -7 -7 -11 -13 -9 -7 1 -10 1 -5 -1 4 -3 7 -11 7 -18
0 -23 29 -25 45 -2 10 14 15 16 15 7 -1 -16 -24 -52 -34 -51 -3 1 -6 -1 -6 -4
0 -3 0 -7 0 -10 0 -3 10 -1 23 5 21 11 21 10 -2 -8 -15 -12 -21 -24 -16 -32 6
-9 0 -11 -22 -6 -22 5 -30 3 -30 -8 0 -8 6 -12 15 -9 8 4 19 -2 24 -11 6 -11
16 -15 29 -11 10 4 19 3 19 -2 0 -5 9 -9 21 -9 18 0 19 2 4 12 -9 7 -12 15 -6
18 5 4 12 2 16 -4 3 -5 11 -10 18 -10 15 0 -3 18 -23 22 -8 2 -21 10 -27 18
-12 13 -12 13 -8 0 3 -8 -4 -21 -15 -28 -11 -7 -20 -8 -20 -3 0 6 5 13 10 16
6 4 8 10 5 15 -3 5 3 13 12 19 14 7 24 4 42 -12 13 -12 21 -16 17 -9 -5 8 0
12 13 12 12 0 21 -4 21 -10 0 -6 -3 -9 -7 -9 -20 3 -25 -2 -14 -15 9 -10 8
-16 -4 -26 -8 -7 -12 -17 -8 -24 4 -6 -1 -5 -10 2 -16 14 -37 9 -37 -8 0 -5 8
-7 18 -4 16 5 16 5 -1 -6 -14 -9 -21 -7 -35 10 -11 13 -33 24 -57 27 -22 3
-37 2 -34 -2 4 -3 18 -7 32 -9 24 -2 69 -36 48 -36 -22 0 -26 2 -23 11 3 12
-34 -7 -43 -21 -3 -6 -3 -19 0 -31 5 -15 12 -18 27 -13 15 4 18 3 13 -6 -5 -9
-4 -11 4 -6 6 4 9 16 6 27 -4 13 -2 19 9 19 9 0 16 -5 16 -11 0 -5 -4 -8 -8
-5 -4 2 -7 -8 -6 -22 1 -15 3 -33 3 -40 1 -7 6 -10 12 -6 7 4 10 1 7 -6 -2 -8
-10 -16 -18 -18 -7 -3 -10 0 -7 5 4 6 0 19 -8 29 -15 19 -15 19 -8 0 4 -13 3
-17 -5 -12 -18 11 -14 -13 4 -31 14 -14 19 -15 38 -3 11 7 18 9 14 5 -4 -5 -3
-14 3 -21 8 -10 3 -11 -22 -7 -27 4 -29 3 -18 -10 8 -8 18 -14 23 -14 4 1 10
-6 11 -17 3 -16 0 -15 -23 5 -36 32 -42 41 -34 54 3 5 -6 2 -22 -8 -35 -23
-45 -16 -15 12 18 16 20 24 11 33 -9 9 -12 8 -12 -5 0 -21 -13 -22 -30 -2 -9
11 -16 12 -26 5 -9 -8 -15 -6 -23 7 -6 10 -10 14 -11 8 0 -5 4 -16 9 -24 8
-12 12 -12 24 -2 18 14 25 5 23 -27 -2 -24 -24 -44 -38 -36 -15 9 -8 23 8 17
10 -4 8 3 -7 18 -13 13 -26 20 -28 15 -2 -4 0 -11 5 -15 5 -3 10 -14 11 -24 1
-13 -4 -17 -14 -12 -13 5 -14 3 -3 -10 9 -11 15 -13 20 -5 9 14 20 13 41 -6 9
-8 19 -11 24 -7 4 5 5 -3 1 -17 -13 -49 -15 -61 -9 -75 8 -23 22 -8 19 20 -2
14 1 22 6 18 6 -3 7 4 3 18 -3 13 -3 19 2 13 4 -6 18 -10 30 -9 14 1 19 -3 16
-12 -6 -17 -23 -17 -23 0 0 6 -6 3 -12 -7 -8 -14 -8 -21 0 -24 6 -2 2 -12 -9
-23 -15 -15 -17 -24 -10 -33 15 -18 2 -27 -20 -15 -15 8 -19 6 -19 -6 0 -9 4
-14 8 -11 5 3 8 -8 8 -23 0 -25 -3 -28 -25 -24 -14 2 -34 4 -44 4 -9 0 -15 4
-12 9 3 6 -1 7 -9 4 -11 -4 -14 1 -12 20 3 22 1 24 -15 15 -18 -9 -16 -39 2
-39 5 0 9 -4 9 -8 0 -4 -14 -9 -31 -10 -19 -2 -28 1 -24 8 3 6 12 8 18 4 7 -3
1 4 -12 15 -21 19 -20 26 2 22 4 0 7 4 7 9 0 16 -15 12 -35 -10 -15 -17 -15
-20 -3 -25 15 -6 17 -32 4 -53 -4 -7 -5 -16 -2 -19 3 -4 6 -1 6 6 0 7 5 9 10
6 6 -3 10 1 10 10 0 9 4 14 9 10 15 -8 9 -46 -6 -41 -7 3 -12 2 -12 -2 3 -17
-14 -51 -22 -46 -5 3 -7 9 -4 14 3 4 -2 10 -10 14 -8 3 -17 0 -21 -6 -5 -7 -2
-8 6 -3 8 5 11 3 8 -6 -3 -9 -18 -14 -40 -13 -22 0 -35 -4 -35 -13 0 -7 5 -9
11 -5 30 22 60 -18 31 -41 -6 -4 -2 -7 9 -5 10 2 21 -3 24 -11 2 -8 0 -11 -6
-7 -5 3 -12 0 -15 -8 -4 -9 0 -12 13 -9 10 3 21 0 24 -6 4 -6 13 -11 19 -11 7
0 4 5 -5 11 -10 5 -18 19 -18 29 0 10 -8 24 -17 30 -13 8 -14 13 -5 16 6 3 10
10 7 14 -3 5 -1 11 5 15 10 6 13 -5 11 -35 0 -8 4 -5 10 7 9 18 16 20 35 13
19 -8 24 -6 24 6 0 11 -6 13 -20 9 -11 -4 -20 -2 -20 4 0 6 7 11 15 11 8 0 14
6 12 13 -1 6 4 11 11 10 6 -2 12 2 12 7 0 6 -4 10 -8 10 -10 0 -9 36 1 46 4 4
7 1 7 -7 1 -12 3 -11 13 1 15 18 37 19 55 2 8 -7 17 -10 21 -8 12 8 6 -31 -7
-47 -7 -7 -8 -18 -4 -23 4 -4 0 -3 -10 4 -11 9 -18 10 -23 2 -10 -16 -25 -1
-25 26 0 13 -3 24 -8 24 -4 0 -8 -25 -8 -55 -1 -44 2 -53 13 -44 7 6 11 14 9
18 -2 3 9 7 26 8 21 0 26 -2 17 -8 -12 -7 -7 -12 11 -11 3 0 12 -7 20 -16 13
-14 12 -15 -5 -7 -37 15 -75 18 -75 5 0 -7 6 -10 13 -7 8 3 13 -4 13 -20 0
-24 0 -24 -16 -4 -14 20 -79 46 -88 36 -3 -3 0 -17 7 -31 6 -14 9 -30 6 -35
-4 -5 -2 -9 4 -9 17 0 18 24 3 48 -13 20 -13 22 2 16 9 -3 13 -11 9 -17 -4 -6
0 -8 9 -4 12 4 14 1 11 -14 -3 -11 0 -19 6 -19 7 0 10 4 6 9 -3 5 -1 12 5 16
5 3 10 3 11 -2 3 -36 3 -71 0 -67 -2 2 -9 -1 -16 -6 -8 -7 -12 -5 -12 5 0 8 4
12 9 9 14 -9 9 13 -6 25 -10 9 -16 8 -26 -3 -9 -12 -8 -19 7 -35 18 -19 37
-22 59 -9 6 4 11 1 11 -7 0 -11 -9 -14 -34 -11 -23 2 -33 -1 -33 -10 0 -8 -4
-14 -10 -14 -5 0 -10 7 -10 16 0 11 -5 14 -16 10 -14 -5 -15 -4 -4 9 7 8 17
12 24 8 6 -4 5 1 -2 9 -8 9 -20 14 -28 11 -7 -3 -16 2 -20 10 -3 9 -13 13 -25
10 -22 -6 -24 -14 -6 -32 10 -11 9 -13 -5 -8 -9 3 -24 0 -34 -8 -10 -7 -25
-11 -34 -8 -13 4 -13 3 0 -5 8 -6 18 -8 22 -6 4 3 8 1 8 -5 0 -6 7 -8 15 -5 8
4 12 11 9 16 -4 6 -1 9 7 6 8 -3 15 -15 15 -27 1 -24 -11 -37 -21 -21 -8 13
-25 13 -25 0 0 -5 7 -10 16 -10 14 0 15 -2 3 -17 -10 -11 -10 -14 -1 -9 11 7
18 -12 13 -38 -1 -5 6 -3 15 5 16 12 17 12 11 -3 -4 -12 -2 -15 9 -11 7 3 14
0 14 -7 0 -7 7 -10 17 -6 10 4 14 3 9 -1 -4 -4 -27 -8 -50 -9 -40 0 -43 2 -40
24 2 22 1 23 -13 10 -12 -13 -13 -19 -1 -37 11 -18 11 -23 -1 -30 -7 -5 -10
-14 -7 -20 5 -8 -4 -10 -30 -6 -34 4 -35 3 -18 -9 14 -11 21 -11 26 -3 8 12
12 -4 9 -32 -2 -7 3 -10 9 -6 6 4 18 -1 25 -11 13 -18 14 -18 8 4 -3 12 -9 22
-14 22 -5 0 -9 7 -9 17 0 15 1 15 19 -1 16 -15 19 -15 24 -1 4 9 -1 20 -12 27
-21 13 -17 38 6 38 8 0 12 -3 9 -8 -2 -4 2 -15 9 -25 11 -15 13 -15 18 -2 4 8
3 14 -1 12 -4 -1 -9 3 -12 8 -3 6 5 11 18 13 12 2 22 -1 22 -7 0 -6 7 -11 16
-11 12 0 14 3 6 13 -6 7 -7 18 -3 26 7 11 11 9 20 -5 9 -17 12 -17 22 -4 9 13
10 12 5 -2 -3 -10 -1 -18 4 -18 18 0 19 18 1 39 -20 23 -37 29 -25 9 6 -10 5
-10 -8 -1 -8 7 -17 10 -20 8 -3 -3 -18 0 -34 6 -16 7 -32 12 -35 11 -4 -1 -9
7 -12 18 -6 22 16 45 33 35 14 -9 2 -27 -13 -19 -7 4 -2 -3 11 -16 13 -12 26
-19 30 -15 3 3 0 10 -7 14 -8 5 -10 14 -6 21 4 7 2 16 -6 21 -12 7 -12 9 1 9
9 0 7 6 -8 16 -15 10 -21 22 -17 32 3 8 0 19 -7 24 -7 4 -8 8 -3 8 6 -1 19 -7
30 -16 16 -12 17 -16 6 -23 -9 -6 -10 -11 -2 -15 6 -4 15 -5 20 -2 5 3 11 -1
15 -9 3 -8 2 -15 -3 -15 -16 0 -19 -39 -3 -45 8 -3 17 -3 20 0 3 3 0 5 -6 5
-21 0 -13 27 13 44 15 10 25 12 25 5 0 -6 -9 -13 -20 -16 -24 -6 -25 -16 -6
-32 10 -8 16 -9 21 -1 3 5 0 10 -7 10 -8 0 -6 5 5 11 10 6 21 8 24 5 4 -3 1
-6 -6 -6 -7 0 -10 -4 -6 -10 3 -5 13 -7 23 -4 12 4 13 3 5 -3 -10 -7 -10 -13
0 -27 13 -17 14 -18 20 -2 5 12 3 15 -6 10 -9 -5 -8 -3 1 7 8 9 15 10 20 4 4
-6 17 -10 30 -9 12 1 20 -1 17 -4 -3 -3 2 -13 11 -23 15 -16 14 -17 -5 -12
-11 3 -19 10 -18 15 1 6 -4 13 -12 16 -9 3 -11 0 -6 -8 5 -9 4 -11 -3 -6 -7 4
-12 3 -12 -3 0 -13 -31 -7 -44 10 -6 8 -20 13 -31 13 -11 -1 -26 -2 -32 -3 -7
-1 -13 -5 -13 -11 0 -5 7 -7 16 -3 19 7 64 -16 64 -33 0 -6 7 -14 15 -18 9 -3
12 -12 9 -21 -5 -11 -10 -13 -17 -6 -7 7 -16 7 -30 -1 -18 -9 -18 -11 12 -25
17 -9 29 -18 26 -21 -3 -3 -10 -1 -17 6 -8 8 -17 8 -30 1 -10 -5 -23 -7 -28
-4 -6 3 -10 1 -10 -4 0 -6 3 -11 8 -11 4 0 13 -9 20 -21 8 -12 9 -18 3 -14 -6
3 -11 2 -11 -3 0 -8 22 -22 35 -22 6 0 0 24 -9 39 -6 10 -5 12 2 7 7 -4 12 -4
12 1 0 4 12 9 27 10 19 1 22 -1 12 -8 -15 -9 -8 -12 26 -10 14 0 16 -1 5 -6
-8 -3 -23 -10 -32 -15 -14 -6 -16 -5 -12 7 4 8 2 15 -4 15 -13 0 -23 -28 -12
-35 4 -3 16 -2 26 2 10 3 15 2 12 -3 -3 -5 0 -14 7 -21 10 -10 14 -9 19 3 3 8
2 13 -2 10 -5 -3 -9 0 -9 7 0 7 8 13 18 13 9 0 15 -6 12 -12 -4 -12 12 -27 35
-30 6 -1 10 2 6 7 -3 5 -10 6 -16 3 -7 -5 -8 -2 -3 6 6 9 4 11 -5 5 -9 -6 -11
-4 -5 4 5 9 11 9 17 3 6 -6 17 -8 24 -5 10 3 12 0 9 -10 -4 -8 1 -17 11 -21
12 -5 15 -2 10 11 -6 14 -5 15 5 6 9 -9 18 -9 33 -2 16 8 15 6 -4 -10 -24 -19
-10 -25 19 -7 11 7 13 5 7 -9 -5 -14 -4 -16 7 -7 8 7 18 8 23 4 4 -4 2 1 -6
11 -14 18 -13 18 24 3 32 -13 37 -14 32 -1 -3 8 0 17 7 21 7 4 9 4 5 -1 -10
-11 11 -47 25 -42 7 2 27 -7 46 -21 19 -14 31 -20 26 -13 -4 8 4 6 19 -4 25
-17 31 -28 26 -50 -1 -5 2 -7 6 -3 4 5 13 -1 21 -12 8 -11 18 -20 24 -20 15 0
12 2020 -4 2039 -9 12 -9 13 1 7 7 -4 12 -2 12 7 0 9 -9 14 -24 13 -13 0 -22
-4 -20 -8z"/>
<path d="M7512 5932 l-102 -3 15 -23 c13 -19 13 -23 1 -23 -8 0 -12 6 -8 15 4
11 1 14 -11 9 -9 -3 -19 -1 -23 5 -5 7 -2 8 6 3 9 -5 11 -4 6 3 -9 15 -76 16
-76 2 0 -5 -8 -10 -17 -10 -15 0 -16 2 -3 10 12 8 9 10 -11 10 -15 0 -29 -7
-33 -15 -3 -8 -1 -15 4 -15 6 0 10 5 10 12 0 6 7 4 18 -5 10 -10 22 -14 27
-10 4 5 5 2 1 -4 -5 -9 0 -13 13 -13 12 0 21 -4 21 -10 0 -6 -9 -6 -26 0 -14
6 -30 7 -36 4 -7 -4 -8 -2 -4 4 5 8 -1 12 -14 12 -13 0 -19 -4 -14 -12 4 -7 3
-8 -5 -4 -6 4 -9 11 -6 16 11 17 -13 19 -26 2 -7 -9 -10 -14 -5 -10 4 3 16 -2
27 -13 10 -10 25 -16 34 -13 8 4 15 1 15 -6 0 -6 -4 -8 -10 -5 -5 3 -11 0 -11
-7 -4 -40 -8 -56 -23 -88 -8 -19 -15 -33 -16 -30 0 3 -4 20 -9 38 -7 24 -7 31
2 25 8 -4 7 -1 -1 9 -8 10 -20 14 -29 11 -12 -5 -15 -2 -10 10 3 8 -1 21 -8
27 -8 7 -13 16 -10 20 3 4 -2 11 -11 14 -9 3 -12 2 -9 -5 4 -6 0 -18 -9 -28
-16 -17 -15 -18 9 -16 14 2 25 -1 25 -7 0 -6 -7 -7 -16 -4 -14 5 -15 4 -5 -8
7 -8 10 -20 6 -26 -3 -5 -1 -10 6 -10 7 0 9 -10 7 -25 -6 -31 5 -40 26 -20 9
9 17 11 21 5 3 -5 2 -10 -4 -10 -6 0 -16 -10 -23 -22 -7 -13 -21 -24 -32 -25
-13 -1 -15 2 -7 10 13 13 15 31 3 23 -5 -3 -21 1 -35 9 -25 13 -26 13 -17 -4
5 -10 6 -22 2 -27 -4 -5 1 -2 11 5 15 12 17 11 17 -7 0 -11 7 -23 16 -26 9 -4
14 -9 11 -13 -4 -3 -19 2 -34 12 l-28 18 23 -25 c12 -13 22 -30 22 -37 0 -7 5
-9 10 -6 6 4 8 10 5 15 -3 4 4 6 16 3 20 -5 20 -6 -3 -18 -24 -12 -52 -9 -43
5 3 5 1 11 -5 15 -5 3 -10 -3 -10 -14 0 -12 5 -21 12 -21 6 0 3 -7 -8 -15 -19
-15 -19 -15 1 -9 16 5 17 4 5 -5 -22 -16 -29 -13 -28 12 2 39 -2 48 -14 41
-10 -6 -10 -4 0 7 14 16 16 39 2 39 -5 0 -8 -6 -6 -12 1 -7 1 -10 -1 -5 -8 13
-50 7 -66 -10 -14 -17 -14 -18 10 -20 18 -1 22 2 12 7 -16 11 -5 25 14 17 8
-3 13 -18 12 -37 -1 -21 2 -29 11 -26 17 7 12 -18 -9 -38 -25 -25 -21 -29 10
-9 15 10 24 12 20 6 -9 -15 4 -17 19 -4 5 5 20 11 34 13 14 1 28 7 31 12 4 4
9 3 13 -2 4 -7 -13 -17 -41 -25 -26 -8 -160 -49 -298 -90 -137 -42 -338 -101
-445 -132 -107 -31 -244 -71 -305 -90 -60 -18 -204 -61 -320 -95 -318 -93
-622 -192 -605 -197 8 -3 58 -22 110 -43 52 -21 136 -53 185 -73 72 -28 89
-38 87 -53 -2 -18 -2 -18 13 0 14 19 15 19 15 2 0 -15 3 -16 14 -7 9 8 16 8
20 2 4 -6 -2 -15 -13 -20 -14 -8 -21 -8 -24 2 -3 8 -9 6 -20 -8 -13 -17 -17
-17 -32 -5 -14 12 -18 12 -25 0 -5 -8 -6 -18 -4 -22 3 -4 1 -8 -5 -8 -16 0 -8
41 11 51 12 7 20 4 27 -8 11 -19 11 -19 15 15 3 26 -6 28 -39 6 -23 -15 -25
-15 -25 0 0 9 -4 16 -10 16 -5 0 -7 -7 -4 -15 7 -18 0 -19 -28 -4 -14 8 -23 8
-31 0 -6 -6 -18 -11 -26 -10 -11 0 -12 2 -3 6 6 2 12 10 12 16 0 6 -11 0 -25
-13 -14 -13 -25 -28 -25 -34 0 -6 4 -5 9 2 6 10 12 7 24 -12 12 -18 14 -27 5
-32 -7 -4 -8 -3 -4 4 7 12 -39 38 -58 33 -5 -1 -6 5 -3 12 4 11 -1 14 -17 13
-22 -1 -22 -4 19 -61 155 -218 254 -368 249 -376 -3 -5 0 -8 8 -7 7 2 12 -5
12 -14 -1 -10 2 -15 7 -13 4 3 19 -11 33 -31 23 -34 24 -39 10 -65 -8 -17 -20
-26 -28 -23 -15 6 -10 44 6 44 6 0 7 -8 3 -17 -5 -14 -3 -15 6 -6 13 13 5 48
-10 39 -4 -3 -7 5 -6 18 2 18 -1 23 -15 19 -10 -3 -21 0 -24 6 -4 6 -13 11
-19 11 -7 0 -6 -4 3 -10 10 -6 11 -10 3 -10 -7 0 -13 -5 -13 -12 0 -9 3 -9 11
-1 12 12 49 6 49 -8 0 -5 -8 -9 -18 -9 -10 0 -27 -6 -37 -14 -18 -13 -17 -14
8 -13 15 0 24 3 21 8 -3 5 0 9 5 9 19 0 12 -22 -10 -27 -12 -4 -18 -11 -15
-20 3 -8 6 -16 6 -19 0 -2 6 -1 14 2 8 3 17 0 21 -5 3 -6 11 -8 17 -5 6 4 6
-2 -1 -15 -7 -11 -9 -21 -6 -21 3 0 0 -6 -7 -14 -7 -8 -16 -12 -20 -9 -5 2 -8
-1 -8 -7 0 -6 10 -10 23 -9 39 4 58 -1 52 -11 -4 -6 -13 -7 -24 -1 -9 5 -23 6
-30 2 -11 -7 -11 -10 0 -14 8 -3 9 -6 2 -6 -14 -1 -5 -41 11 -41 6 0 3 -5 -6
-11 -10 -5 -18 -15 -18 -20 0 -6 5 -7 10 -4 6 3 10 2 10 -4 0 -5 -8 -12 -18
-15 -19 -6 -28 -46 -10 -46 5 0 8 -6 5 -14 -3 -7 0 -19 6 -25 8 -8 8 -14 -2
-23 -10 -11 -11 -9 -5 6 5 14 3 17 -7 14 -9 -3 -14 -18 -13 -40 2 -33 1 -35
-16 -19 -11 11 -14 20 -7 29 5 6 6 12 1 12 -5 0 -2 5 6 10 13 8 12 11 -5 24
-15 11 -21 11 -24 3 -2 -7 -9 -16 -15 -20 -6 -5 -1 -5 12 -2 26 7 27 -12 2
-32 -11 -9 -12 -12 -2 -13 7 0 10 -5 7 -10 -10 -16 -27 0 -22 20 3 13 0 17 -9
13 -8 -3 -14 0 -14 7 0 8 -9 10 -27 5 -40 -9 -56 -28 -18 -20 l30 7 -25 -21
c-22 -18 -23 -21 -6 -21 10 0 25 8 32 18 11 14 15 15 23 3 5 -8 7 -21 4 -30
-3 -10 -1 -12 4 -6 10 12 33 18 33 9 0 -11 -34 -33 -52 -34 -23 0 -31 -16 -19
-37 10 -17 10 -17 11 0 0 10 5 15 10 12 7 -4 6 -13 -1 -27 -8 -14 -8 -23 0
-31 8 -8 11 -8 11 2 0 7 5 9 11 5 8 -4 9 0 4 15 -4 13 -2 21 5 21 6 0 9 -4 6
-9 -10 -15 22 -21 34 -6 6 8 19 11 27 8 12 -5 14 -3 8 7 -5 8 -4 11 3 6 5 -3
12 0 15 6 4 10 7 10 16 1 6 -7 8 -11 5 -8 -4 2 -24 -9 -44 -25 -20 -16 -40
-27 -44 -23 -3 3 -6 2 -6 -4 0 -6 -18 -13 -39 -17 -22 -3 -43 -11 -46 -16 -8
-14 29 -7 78 13 26 11 39 13 43 5 4 -6 3 -8 -3 -5 -6 4 -13 1 -16 -7 -8 -22
25 -14 49 12 12 12 28 22 35 22 10 -1 9 -4 -3 -14 -10 -7 -15 -16 -11 -20 4
-4 0 -4 -10 0 -10 3 -17 1 -17 -5 0 -6 5 -11 10 -11 6 0 10 -4 10 -9 0 -8 -21
-8 -40 -1 -3 1 -13 2 -22 1 -10 -1 -18 3 -18 8 0 6 -5 11 -11 11 -5 0 -7 -5
-3 -11 3 -6 0 -16 -7 -21 -11 -8 -10 -9 4 -4 9 3 17 2 17 -3 0 -5 -8 -11 -17
-15 -10 -3 -24 -9 -30 -12 -7 -3 -13 -1 -13 6 0 6 5 8 12 4 7 -4 8 -3 4 4 -5
8 -22 2 -55 -18 -27 -17 -53 -30 -59 -30 -5 0 -13 -8 -16 -17 -4 -10 -4 -14 0
-10 4 4 13 -1 20 -11 12 -16 13 -15 9 5 -2 15 2 24 16 28 10 4 19 11 19 16 0
5 5 9 12 9 6 0 3 -9 -7 -20 -15 -17 -16 -20 -3 -20 16 0 33 26 29 45 -1 6 5 2
13 -8 12 -16 15 -16 29 -3 8 8 17 12 21 9 3 -4 6 -1 6 5 0 7 5 12 11 12 6 0 7
-5 2 -12 -10 -17 -15 -38 -14 -66 1 -13 -3 -21 -8 -18 -12 8 -21 46 -10 46 5
0 9 4 9 10 0 5 -17 -2 -37 -16 -21 -14 -37 -30 -36 -35 2 -4 -4 -6 -12 -3 -8
4 -15 2 -15 -3 0 -5 12 -10 26 -11 21 -2 24 1 15 12 -9 11 -7 15 9 19 11 3 23
1 26 -4 3 -5 -1 -9 -8 -9 -10 0 -9 -3 2 -9 8 -6 18 -7 24 -4 5 4 7 -1 3 -11
-4 -10 -3 -15 3 -11 16 10 12 -11 -5 -25 -8 -7 -22 -10 -30 -6 -9 3 -14 2 -11
-3 7 -10 -22 -24 -34 -16 -5 3 -7 -2 -6 -10 2 -12 61 -65 73 -65 2 0 -1 9 -7
20 -6 11 -8 20 -4 20 3 0 1 7 -6 15 -13 16 -5 20 29 15 9 -1 12 4 7 15 -4 11
-2 15 6 12 7 -2 12 -11 12 -19 -1 -11 6 -13 25 -9 20 4 22 6 8 9 -17 4 -17 5
-2 22 16 18 45 17 45 -1 0 -4 -8 -5 -17 -2 -15 6 -16 4 -6 -9 7 -8 10 -18 6
-22 -9 -8 28 -3 44 7 6 4 14 3 17 -2 6 -10 -22 -25 -40 -22 -7 1 -14 -6 -18
-14 -4 -13 -10 -14 -26 -5 -15 8 -20 8 -18 -2 2 -6 -3 -13 -9 -14 -7 -1 -17
-2 -23 -3 -20 -2 -9 -20 30 -51 22 -17 40 -28 40 -23 0 6 -11 16 -25 23 -26
14 -33 30 -13 30 7 0 24 12 39 26 l28 27 -2 -28 c-1 -16 -8 -30 -16 -33 -9 -3
-11 0 -6 8 5 8 3 11 -6 8 -22 -7 -16 -31 8 -33 12 -1 20 2 18 6 -3 4 2 9 10
12 10 4 12 1 8 -11 -6 -15 -5 -16 13 -2 17 14 18 14 6 -1 -10 -14 -10 -20 2
-32 8 -8 12 -17 9 -21 -10 -9 6 -7 28 4 13 8 19 7 19 0 0 -6 5 -8 11 -4 7 4 7
10 1 16 -6 6 -8 16 -6 23 3 7 0 16 -7 21 -8 5 -10 3 -4 -7 7 -11 5 -11 -11 1
-29 22 -30 23 -14 18 8 -3 20 1 25 8 8 10 13 9 25 -4 13 -14 12 -15 -5 -9 -20
7 -20 7 -1 -8 11 -8 16 -15 12 -15 -5 0 -3 -6 3 -13 6 -8 8 -17 4 -20 -3 -4 0
-7 8 -8 8 -1 3 -4 -11 -8 -14 -4 -24 -12 -23 -17 1 -5 -10 -10 -23 -10 -13 -1
-22 2 -19 6 3 4 -3 7 -13 6 -9 0 -18 6 -18 14 -1 8 -2 20 -3 27 -1 13 -41 6
-41 -8 0 -11 86 -70 93 -63 3 3 10 -4 16 -15 7 -12 17 -18 26 -15 8 4 15 1 15
-6 0 -8 10 -9 33 -5 31 7 31 7 15 -12 -17 -18 -14 -22 98 -103 63 -47 145
-107 181 -134 52 -39 67 -46 75 -35 8 11 9 10 4 -3 -6 -19 4 -27 498 -387 238
-174 321 -229 327 -219 12 18 11 28 -2 28 -5 0 -8 -4 -4 -9 3 -5 1 -12 -5 -16
-6 -4 -10 5 -10 20 0 20 4 26 15 21 20 -8 42 -14 33 -9 -5 3 -8 9 -8 15 0 6 6
5 15 -2 9 -7 14 -19 11 -27 -3 -8 -2 -12 3 -9 12 8 62 -59 53 -69 -4 -5 -1 -5
6 -1 7 4 12 1 12 -8 0 -8 8 -19 18 -25 14 -8 17 -4 18 23 1 17 -1 25 -3 19 -6
-18 -20 -16 -20 2 0 8 4 15 9 15 4 0 8 5 8 11 0 5 -5 7 -12 3 -7 -4 -8 -3 -4
4 6 10 -27 121 -149 502 -24 74 -89 279 -144 455 -295 942 -402 1288 -399
1290 5 4 309 223 368 265 30 21 188 133 350 249 162 115 329 234 370 264 189
135 651 462 800 565 91 63 169 119 175 123 8 8 -704 9 -963 1z"/>
<path d="M9965 5779 c3 -18 2 -29 -2 -25 -3 3 -13 0 -20 -6 -12 -10 -14 -9
-11 4 1 9 -1 17 -7 17 -5 1 -10 -4 -10 -9 0 -6 -7 -15 -15 -20 -8 -5 -11 -12
-7 -17 5 -4 12 -1 18 7 8 13 10 13 19 0 15 -23 12 -32 -9 -25 -11 3 -23 0 -27
-6 -4 -8 -3 -9 4 -5 15 9 16 -6 2 -20 -12 -12 -2 -47 11 -38 5 3 17 0 26 -5
10 -6 13 -11 7 -11 -7 0 -14 -10 -17 -22 -4 -12 -9 -19 -12 -16 -4 3 -2 17 5
30 10 21 10 21 -3 5 -13 -16 -15 -15 -27 13 -12 29 -30 41 -30 20 0 -5 5 -10
11 -10 5 0 7 -5 4 -11 -5 -7 -14 -4 -28 8 l-22 18 20 -24 20 -24 -20 6 c-17 6
-18 5 -4 -5 17 -14 14 -42 -3 -32 -7 4 -8 2 -4 -4 4 -7 15 -12 24 -12 12 0 13
-3 5 -11 -9 -9 -8 -15 3 -27 8 -8 12 -17 8 -21 -4 -3 -9 0 -11 7 -3 6 -12 12
-21 12 -13 0 -10 -5 8 -18 30 -20 28 -40 -6 -65 -30 -23 -58 -15 -51 13 3 11
1 20 -4 20 -9 0 -10 -2 -14 -37 -1 -14 2 -20 11 -16 8 3 14 0 14 -7 0 -9 7 -7
25 4 32 21 41 20 24 -1 -12 -16 -12 -17 2 -6 9 7 20 9 24 5 5 -4 5 -2 2 4 -4
7 2 14 14 17 15 4 18 2 10 -7 -11 -13 -5 -26 10 -26 5 0 6 7 3 15 -3 8 6 25
21 39 22 20 24 27 13 31 -8 3 -19 5 -24 4 -22 -4 -41 2 -41 14 0 6 -4 21 -9
31 -5 13 -4 17 4 12 6 -3 13 -2 17 4 4 6 11 8 16 4 5 -3 7 -10 4 -15 -13 -20
8 -7 27 17 13 16 26 23 36 19 13 -5 12 -2 -2 14 -10 11 -23 18 -29 14 -6 -4
-7 -1 -1 8 15 24 14 71 -2 65 -7 -3 -16 -1 -19 4 -6 9 8 14 28 11 5 -1 5 4 1
10 -4 8 -3 9 4 5 7 -4 12 -13 12 -21 0 -18 14 -26 33 -19 9 3 13 12 10 21 -4
11 -2 14 5 9 7 -4 12 -3 12 3 0 15 -18 23 -25 11 -4 -6 -12 -7 -18 -3 -7 4
-18 8 -25 9 -22 4 -27 13 -14 26 9 9 12 9 12 0 0 -7 5 -12 11 -12 5 0 8 4 4 9
-3 5 -1 12 5 16 10 6 15 -8 10 -30 -1 -5 5 -4 12 3 11 11 9 17 -10 32 -13 11
-20 24 -16 34 3 9 1 16 -4 16 -6 0 -9 -14 -7 -31z"/>
<path d="M2920 5559 c0 -5 6 -7 13 -3 8 5 7 2 -2 -10 -11 -13 -11 -20 -3 -28
9 -9 12 -9 12 2 0 7 2 11 5 8 3 -3 1 -17 -4 -31 -12 -30 3 -47 22 -27 10 10 8
11 -8 6 -15 -5 -17 -4 -9 4 6 6 22 8 36 5 19 -5 24 -12 23 -33 -1 -15 -6 -26
-12 -25 -6 1 -10 -7 -9 -19 1 -12 9 -22 19 -24 15 -2 16 0 6 13 -10 12 -10 16
1 23 8 5 17 7 21 4 11 -7 2 -46 -13 -55 -7 -4 -10 -10 -7 -14 3 -3 18 6 33 20
33 31 34 31 31 0 -2 -14 2 -25 8 -25 5 0 7 -3 4 -6 -4 -4 -13 -2 -20 5 -11 9
-17 8 -27 -4 -11 -13 -10 -14 6 -8 17 6 17 5 6 -10 -14 -17 -46 -12 -35 6 3 6
1 7 -5 3 -19 -11 -15 -36 5 -29 13 5 15 2 9 -18 -13 -46 -15 -59 -7 -54 5 3
12 -3 15 -12 6 -15 8 -15 16 -3 8 12 10 12 10 1 0 -8 6 -11 16 -7 8 3 13 2 10
-3 -3 -5 1 -12 10 -15 24 -9 28 -7 16 7 -7 8 -7 18 -2 27 8 12 10 11 10 -5 0
-12 3 -16 8 -9 4 7 15 8 27 3 l20 -8 -20 -1 c-11 -1 -14 -4 -7 -7 6 -2 12 -9
12 -14 0 -4 -7 -6 -15 -3 -8 4 -15 1 -15 -5 0 -6 7 -11 15 -11 8 0 15 -5 15
-11 0 -13 -39 -2 -58 17 -17 17 -36 8 -28 -13 4 -10 2 -13 -7 -10 -10 4 -13
-3 -12 -21 1 -19 6 -26 18 -24 15 3 22 -8 18 -30 0 -4 6 -5 15 -1 10 4 12 8 5
13 -6 3 -13 17 -16 29 -2 12 -7 32 -11 43 -4 14 -2 18 5 14 6 -4 11 -12 11
-17 0 -6 7 -18 16 -26 13 -13 13 -17 2 -24 -10 -7 -10 -9 2 -10 8 -1 19 -1 24
0 5 1 4 -4 -3 -13 -10 -12 -8 -16 10 -21 14 -5 25 -2 30 6 8 13 13 5 9 -16 -7
-37 -7 -82 1 -102 8 -21 11 -22 31 -12 20 11 22 11 10 -4 -11 -13 -7 -20 32
-47 35 -23 46 -27 46 -15 0 8 5 15 11 15 5 0 7 -4 4 -10 -3 -5 0 -10 7 -10 11
0 11 -2 0 -9 -9 -5 -1 -16 30 -36 23 -16 48 -28 55 -28 7 0 10 -4 7 -8 -2 -4
5 -13 16 -19 20 -11 21 -10 10 9 -12 23 -6 41 13 41 8 0 8 -3 0 -11 -9 -9 -9
-19 2 -39 14 -26 65 -68 65 -53 0 4 7 -3 16 -15 9 -14 22 -21 31 -18 8 3 12 2
9 -3 -5 -8 166 -135 182 -136 4 -1 22 -15 41 -33 34 -33 56 -39 81 -21 11 7 7
9 -17 5 -34 -4 -42 1 -48 33 -2 12 3 21 14 24 12 3 17 -2 19 -17 1 -15 -1 -17
-7 -7 -5 7 -11 9 -14 4 -3 -5 -3 -13 1 -18 10 -14 32 -17 32 -4 0 5 4 8 9 5
14 -9 18 14 16 77 -2 32 1 57 7 57 5 0 7 -9 3 -19 -3 -11 0 -23 6 -27 7 -4 9
-3 5 4 -3 6 -1 14 5 18 8 4 9 3 5 -4 -4 -7 -2 -12 6 -12 7 0 2 -7 -10 -16 -24
-17 -25 -39 -2 -39 7 0 14 -8 16 -18 2 -15 0 -16 -12 -6 -11 9 -14 7 -14 -10
0 -19 4 -21 23 -16 30 10 46 26 30 32 -7 2 -9 11 -6 18 4 12 7 12 20 0 8 -8
11 -20 7 -27 -5 -8 -2 -9 12 -4 10 5 45 17 77 28 31 11 57 24 57 30 0 5 -6 6
-12 2 -10 -6 -10 -4 0 7 6 7 12 18 12 24 0 5 -5 3 -10 -5 -8 -12 -10 -12 -10
-1 0 11 -3 11 -15 1 -11 -9 -12 -16 -5 -25 8 -9 6 -14 -4 -18 -8 -3 -16 -1
-19 6 -2 7 -12 3 -26 -10 -21 -20 -24 -20 -42 -5 -14 12 -16 19 -7 29 13 17
19 17 12 0 -3 -8 4 -13 17 -13 17 0 20 5 16 29 -2 20 2 31 14 38 14 7 17 5 16
-10 -1 -17 -4 -18 -17 -8 -13 10 -13 10 -3 -4 7 -9 9 -19 5 -24 -4 -4 3 -2 16
4 18 9 21 18 17 41 -3 17 -1 30 5 30 5 0 10 -4 10 -10 0 -5 5 -10 10 -10 6 0
10 9 10 19 0 15 -6 19 -20 16 -11 -2 -18 0 -16 4 5 7 25 8 59 2 4 0 0 -12 -8
-25 -11 -16 -13 -26 -6 -31 6 -3 11 -1 11 6 0 8 5 7 17 -2 15 -13 15 -12 6 6
-8 13 -8 25 -1 38 5 10 8 20 6 22 -3 3 -45 11 -71 14 -4 1 -2 7 5 15 11 12 14
12 21 0 4 -8 15 -14 23 -14 8 0 13 4 10 8 -3 5 7 8 23 8 18 0 33 -8 46 -25 10
-14 12 -20 5 -13 -8 6 -19 12 -24 12 -6 0 -2 -7 8 -15 10 -8 23 -12 27 -9 5 3
9 1 9 -5 0 -12 -39 -35 -42 -24 0 4 -2 14 -2 22 -1 8 -6 16 -13 18 -8 3 -11
-4 -8 -18 5 -25 22 -39 40 -33 6 3 12 -2 12 -11 0 -15 -9 -19 -34 -16 -7 1
-13 -4 -13 -11 0 -9 -3 -9 -10 2 -9 13 -10 13 -10 0 0 -13 -1 -13 -10 0 -5 8
-10 13 -11 10 0 -3 -2 -13 -4 -23 -2 -11 1 -17 8 -14 7 2 38 12 69 22 36 12
58 25 61 36 3 12 0 16 -9 12 -8 -3 -11 -9 -8 -14 3 -5 0 -9 -5 -9 -17 0 -13
19 8 37 11 9 18 20 15 25 -3 4 -1 8 5 8 5 0 12 -6 14 -12 3 -7 6 4 6 25 1 20
6 37 12 37 5 0 7 4 4 10 -4 6 5 9 19 8 28 -2 34 -13 14 -21 -8 -3 -5 -6 5 -6
12 -1 17 5 15 17 -2 11 2 18 7 18 6 -1 9 -3 9 -6 -1 -3 -5 -15 -9 -27 -4 -14
-2 -23 4 -23 6 0 10 3 10 8 -1 4 0 10 1 15 1 4 3 12 4 17 0 6 5 9 11 8 5 -2 9
-7 7 -11 -1 -5 2 -6 8 -2 6 3 7 0 4 -9 -3 -9 -1 -16 5 -16 18 0 13 37 -6 44
-14 6 -15 9 -4 15 9 6 6 10 -11 16 -12 4 -26 7 -29 7 -3 -1 -6 5 -6 12 0 8 11
11 31 8 23 -2 27 -1 16 7 -8 5 -18 7 -23 4 -5 -3 -8 0 -5 8 3 8 17 14 31 15
14 1 33 6 41 13 10 9 15 9 19 -1 6 -18 -20 -42 -26 -25 -3 7 -6 4 -6 -5 -1
-10 6 -18 14 -18 9 0 12 -6 9 -15 -4 -8 -9 -13 -13 -11 -3 2 -7 -7 -7 -20 -1
-13 2 -24 7 -24 5 0 8 3 7 8 -1 4 4 20 10 35 7 16 9 34 6 39 -5 7 1 9 15 5 21
-5 22 -4 7 12 -9 10 -13 21 -9 24 3 4 1 7 -6 7 -7 0 -9 4 -6 10 10 16 -28 -2
-42 -19 -7 -9 -13 -13 -14 -8 -5 24 -4 33 5 45 7 11 11 11 17 0 7 -11 9 -11 9
0 0 9 7 11 19 7 11 -3 22 -1 26 5 3 5 1 10 -5 10 -6 0 -8 5 -5 11 5 7 13 5 24
-5 23 -21 42 -20 34 2 -5 14 -3 15 8 5 20 -20 50 -17 42 4 -4 11 -8 12 -11 5
-2 -7 -8 -12 -13 -12 -4 0 -6 7 -3 15 4 8 12 15 19 15 17 0 27 27 12 34 -7 2
-3 5 7 5 16 1 17 4 8 13 -14 14 -16 32 -2 23 6 -4 7 1 3 11 -4 11 -8 13 -11 6
-2 -7 -10 -12 -18 -12 -8 0 -14 -5 -14 -11 0 -5 5 -7 10 -4 6 3 10 2 10 -4 0
-17 -18 -22 -24 -6 -9 24 -36 18 -35 -7 0 -13 3 -17 6 -10 7 17 23 15 23 -3 0
-9 6 -12 15 -9 8 4 15 1 15 -5 0 -10 -14 -15 -33 -12 -5 1 -6 -3 -2 -9 3 -5 1
-10 -4 -10 -6 0 -11 6 -12 13 0 6 -5 1 -10 -12 -8 -19 -12 -21 -24 -11 -8 7
-15 17 -15 22 0 7 5 6 13 0 10 -8 13 -6 14 9 1 14 -3 19 -13 15 -8 -3 -14 -3
-14 -1 0 10 53 60 61 57 5 -1 9 3 9 9 0 5 5 7 10 4 6 -3 10 -2 10 2 0 12 -148
56 -166 49 -8 -3 -13 -2 -10 2 2 4 -30 18 -72 31 -42 13 -102 32 -133 42 -31
10 -80 25 -110 33 -30 8 -213 60 -408 116 -194 55 -360 99 -368 96 -8 -3 -12
-2 -9 3 7 11 -131 54 -151 47 -8 -3 -11 -1 -8 4 3 6 -3 10 -13 10 -11 0 -36 7
-55 15 -44 18 -43 18 -45 3 -1 -7 -3 -24 -5 -38 -2 -14 3 -33 9 -44 7 -10 10
-25 7 -32 -8 -22 -20 -16 -19 9 3 32 -4 40 -20 26 -21 -17 -15 11 6 29 8 8 10
11 4 8 -6 -3 -18 4 -27 15 -9 10 -14 19 -11 19 4 0 1 7 -6 15 -10 12 -10 15 1
16 21 1 -23 17 -48 18 -13 1 -23 -4 -23 -10z"/>
<path d="M4950 4658 c-194 -259 -548 -754 -745 -1041 -72 -103 -180 -261 -242
-350 -61 -89 -213 -313 -338 -497 -125 -184 -277 -409 -339 -500 -110 -162
-141 -214 -114 -193 7 6 141 107 298 225 157 118 434 326 615 463 182 137 355
267 385 289 288 215 556 415 606 454 l62 47 -5 665 c-3 366 -6 666 -8 668 -1
1 -80 -102 -175 -230z"/>
<path d="M4939 3347 c-377 -278 -1258 -942 -1781 -1343 -64 -49 -119 -94 -122
-101 -5 -12 205 144 1180 876 297 223 582 436 634 475 52 38 139 103 193 143
l98 74 52 -38 c29 -20 54 -40 57 -43 3 -4 32 -25 65 -47 55 -37 215 -154 258
-190 11 -8 21 -12 23 -10 5 5 -9 16 -251 192 -104 76 -195 142 -201 146 -7 6
-81 -43 -205 -134z"/>
<path d="M9854 849 c29 -34 33 -49 14 -49 -10 0 -10 -2 0 -9 10 -6 10 -10 -3
-21 -8 -7 -15 -11 -16 -9 0 2 -2 13 -4 24 -2 11 -11 25 -19 31 -9 6 -12 15 -8
19 4 5 1 5 -7 0 -12 -7 -11 -10 4 -22 11 -7 13 -13 7 -13 -7 0 -12 -4 -12 -10
0 -5 7 -7 15 -4 13 5 14 2 5 -21 -13 -35 -13 -40 4 -26 11 9 15 8 20 -5 4 -9
4 -19 1 -22 -3 -3 -5 0 -5 6 0 7 -5 12 -11 12 -6 0 -9 -7 -5 -15 3 -8 0 -15
-6 -15 -21 0 2 -13 28 -16 19 -2 24 1 20 12 -3 9 -1 12 4 9 6 -3 10 -1 10 4 0
6 7 11 15 11 8 0 15 -5 15 -11 0 -5 -5 -7 -10 -4 -15 9 -25 -24 -11 -38 8 -8
14 -8 23 1 7 7 17 12 23 12 5 0 3 -4 -5 -10 -11 -7 -9 -11 13 -19 15 -6 27
-12 27 -15 0 -7 -40 6 -45 15 -3 4 -12 6 -21 2 -13 -5 -13 -8 1 -29 13 -20 13
-24 1 -24 -8 0 -17 -6 -20 -12 -3 -7 -3 1 0 19 2 17 -1 35 -6 38 -6 4 -8 11
-5 16 6 8 -15 11 -75 11 -40 0 -43 -1 -30 -17 7 -8 16 -12 21 -9 5 3 6 -3 2
-12 -4 -12 -3 -15 5 -10 18 11 14 0 -5 -15 -11 -10 -14 -10 -9 -1 4 6 2 12 -3
12 -6 0 -11 -4 -11 -10 0 -5 -7 -10 -15 -10 -8 0 -15 -5 -15 -12 0 -6 -3 -8
-7 -4 -4 4 5 17 19 29 23 19 25 24 13 35 -12 10 -17 7 -30 -15 -14 -24 -15
-25 -12 -6 7 33 -11 39 -19 6 -7 -27 -7 -27 -16 -4 -5 15 -13 21 -23 17 -8 -3
-15 -1 -15 5 0 7 10 9 25 5 17 -4 23 -3 20 6 -3 7 -17 14 -31 15 -27 1 -47 20
-38 35 3 4 0 8 -5 8 -6 0 -9 -10 -7 -22 3 -13 5 -27 5 -31 1 -5 6 -5 11 -2 12
7 13 -5 2 -21 -4 -6 -15 -10 -25 -8 -10 1 -16 -3 -14 -9 4 -14 49 -16 59 -3 3
6 20 -5 36 -22 17 -18 27 -32 22 -32 -4 0 -13 7 -20 15 -7 8 -16 12 -21 9 -5
-3 -6 3 -2 13 6 15 4 16 -9 5 -8 -7 -24 -9 -33 -5 -14 5 -16 3 -10 -7 5 -8 4
-11 -3 -6 -6 3 -13 2 -17 -3 -3 -6 -20 -4 -41 5 -20 8 -33 11 -30 6 3 -5 -6
-14 -20 -21 -19 -8 -25 -17 -21 -31 3 -11 1 -20 -4 -20 -9 0 -13 14 -10 37 1
6 -3 14 -8 17 -11 7 -24 -22 -15 -35 3 -5 1 -9 -4 -9 -6 0 -13 7 -16 16 -9 22
-8 26 5 18 8 -4 9 1 4 16 -6 19 -5 21 13 11 13 -7 23 -7 27 -2 3 5 19 13 36
16 24 5 28 10 19 19 -10 8 -14 8 -17 -1 -3 -7 -11 -13 -18 -13 -24 0 -28 20
-8 42 10 12 13 18 6 15 -6 -4 -14 -3 -18 3 -7 11 -25 4 -25 -10 0 -5 8 -7 18
-3 10 4 6 -4 -11 -21 -27 -25 -47 -27 -47 -5 0 6 5 7 12 3 7 -4 8 -3 4 4 -4 7
-2 12 5 12 6 0 0 9 -15 21 -14 11 -24 24 -21 29 3 5 2 11 -3 14 -4 2 -8 -6 -8
-19 0 -13 3 -22 7 -19 4 2 10 0 13 -5 4 -5 2 -12 -4 -16 -6 -4 -8 -10 -5 -15
3 -5 0 -18 -7 -29 -9 -15 -16 -17 -29 -10 -10 5 -25 6 -33 3 -13 -5 -15 0 -11
27 3 19 2 28 -1 21 -5 -10 -9 -10 -22 0 -12 9 -11 6 2 -10 11 -12 14 -22 8
-22 -16 0 -4 -27 15 -35 9 -3 21 0 26 7 6 9 7 8 3 -4 -3 -10 -1 -20 4 -23 6
-4 10 -12 10 -18 0 -7 -4 -6 -10 3 -8 12 -10 11 -10 -7 0 -16 4 -21 15 -17 8
4 15 2 16 -2 0 -5 2 -20 4 -34 2 -14 1 -19 -1 -12 -3 6 -10 10 -15 6 -5 -3 -9
0 -9 5 0 6 5 11 12 11 14 0 2 13 -15 16 -7 1 -25 5 -41 9 -22 6 -28 5 -24 -6
3 -8 15 -15 27 -15 29 -2 35 -9 22 -31 -9 -16 -10 -16 -11 7 -1 14 -4 19 -7
12 -7 -17 -63 -72 -63 -62 0 5 7 15 15 23 8 9 12 24 9 38 -3 13 -6 32 -6 41 1
23 -17 33 -31 18 -9 -9 -7 -15 7 -26 23 -16 21 -19 -19 -28 -16 -4 -25 -3 -19
1 6 4 10 25 9 46 -2 30 0 36 10 27 8 -7 16 -7 19 -2 3 6 -4 13 -17 16 -21 7
-21 7 -2 16 l20 9 -20 1 c-11 1 -27 3 -35 5 -8 1 -21 -3 -27 -10 -10 -10 -9
-16 3 -26 12 -10 13 -9 8 5 -4 10 -1 16 9 16 26 0 29 -18 6 -34 -20 -13 -23
-13 -38 3 -9 9 -12 12 -8 5 4 -7 3 -15 -3 -19 -6 -4 -9 -13 -6 -20 3 -8 -2
-19 -9 -25 -12 -10 -14 -7 -12 19 1 17 6 31 10 31 5 0 5 6 0 13 -14 22 -12 39
3 33 8 -3 12 -2 9 3 -3 6 -14 9 -25 8 -15 -1 -17 -4 -8 -15 9 -11 7 -12 -15
-7 -22 6 -27 4 -27 -10 0 -15 2 -16 17 -4 15 12 16 12 10 -3 -3 -10 -2 -18 2
-18 5 0 11 6 14 13 2 6 4 -1 4 -17 0 -15 -2 -24 -6 -19 -15 22 -36 20 -37 -4
-2 -19 2 -23 17 -18 14 5 19 1 19 -11 0 -10 -3 -14 -7 -11 -3 4 -13 1 -21 -6
-13 -9 -14 -9 -8 1 4 7 1 12 -9 12 -10 0 -13 5 -9 12 4 6 -9 2 -29 -11 -36
-22 -49 -18 -24 8 10 11 9 12 -2 6 -8 -4 -17 -2 -23 6 -6 10 -7 7 -3 -10 5
-16 4 -21 -4 -17 -6 4 -11 2 -11 -5 0 -9 -4 -9 -15 1 -18 15 -38 3 -32 -20 2
-9 1 -24 -4 -32 -9 -16 16 -19 39 -4 6 4 12 3 12 -2 0 -16 -24 -29 -47 -27
-13 1 -23 -3 -23 -8 0 -5 9 -7 21 -4 15 4 23 0 26 -14 5 -19 7 -19 24 -3 14
13 16 20 8 31 -15 17 1 16 24 -1 18 -14 17 -15 -3 -21 -16 -5 -19 -12 -15 -28
4 -14 3 -17 -2 -10 -7 10 -13 10 -29 -2 -13 -11 -14 -13 -3 -9 10 3 19 -1 22
-10 5 -12 1 -13 -16 -7 -15 6 -22 16 -21 33 1 20 -4 26 -22 26 -13 0 -21 -4
-18 -9 3 -5 -2 -6 -10 -3 -18 7 -22 24 -6 24 6 0 10 5 10 11 0 5 -5 7 -11 3
-6 -3 -15 0 -20 7 -4 7 -11 10 -15 6 -4 -4 -2 -13 4 -19 7 -7 12 -19 12 -27 0
-11 -4 -10 -15 5 -15 18 -15 17 -11 -12 2 -17 9 -41 15 -53 7 -11 8 -21 4 -22
-4 0 1 -4 12 -9 17 -8 17 -9 -7 -7 -15 1 -25 4 -22 8 2 4 1 9 -3 12 -5 2 -2 2
5 0 7 -1 10 2 7 7 -4 6 -18 8 -32 6 -19 -4 -23 -2 -19 10 3 9 6 18 6 20 0 2 5
4 11 4 5 0 7 -6 3 -12 -4 -7 -3 -9 1 -5 5 4 10 14 11 23 2 10 -3 13 -16 9 -16
-5 -18 -2 -14 21 l5 27 -19 -23 c-11 -14 -17 -30 -15 -37 3 -7 -1 -13 -8 -13
-8 0 -5 -6 7 -15 19 -15 19 -16 -1 -13 -11 2 -23 7 -27 13 -4 5 -11 6 -15 1
-4 -5 -2 -11 5 -13 6 -3 10 -9 6 -14 -3 -5 -7 -18 -9 -28 -3 -14 1 -18 11 -14
9 3 14 -1 14 -12 0 -10 -4 -13 -12 -9 -9 5 -9 2 1 -9 13 -16 8 -22 -14 -17 -5
1 -6 -2 -2 -6 13 -14 36 -13 48 2 17 20 34 17 18 -3 -13 -16 -12 -17 4 -4 14
11 15 17 5 28 -8 10 -14 11 -16 4 -5 -15 -22 -4 -22 15 0 11 4 12 19 4 26 -14
31 -13 25 5 -4 8 -13 15 -22 15 -13 0 -12 3 3 14 23 16 37 12 29 -9 -3 -8 2
-22 12 -32 12 -13 19 -14 22 -5 4 14 28 16 37 3 3 -5 0 -13 -6 -17 -8 -4 -9
-3 -5 4 9 15 -7 15 -22 0 -8 -8 -15 -8 -26 1 -12 10 -15 9 -13 -8 1 -12 4 -21
7 -21 3 0 6 -12 6 -28 2 -26 1 -27 -9 -4 -6 14 -16 21 -25 17 -7 -3 -25 -5
-38 -5 -14 0 -22 -4 -19 -10 3 -6 -1 -13 -9 -16 -19 -7 -21 -30 -4 -40 7 -5 9
-2 5 9 -4 11 -2 14 7 11 8 -3 17 0 22 7 4 8 3 10 -4 5 -8 -5 -10 -2 -6 8 7 19
20 21 30 5 4 -8 9 -7 15 2 7 11 9 10 9 -5 0 -12 -5 -16 -14 -13 -8 3 -17 0
-20 -8 -3 -9 0 -12 8 -9 8 3 17 1 21 -5 4 -7 0 -8 -11 -4 -12 5 -15 3 -9 -6 6
-10 3 -11 -12 -2 -37 19 -34 -3 2 -25 31 -18 34 -23 20 -34 -8 -7 -15 -9 -15
-5 0 4 -6 2 -14 -4 -17 -14 -63 1 -82 27 -10 14 -15 15 -25 4 -11 -10 -10 -12
4 -12 9 0 17 -5 17 -11 0 -5 -6 -7 -12 -3 -9 5 -8 2 1 -9 24 -30 3 -31 -23 -1
-14 16 -26 23 -26 17 0 -7 6 -13 13 -13 8 0 7 -4 -3 -11 -12 -9 -12 -10 4 -5
16 6 17 4 6 -9 -11 -13 -6 -15 39 -15 39 0 50 3 45 13 -6 9 -5 9 7 0 12 -10
190 -13 772 -13 l757 0 0 330 c0 307 -1 330 -17 330 -17 1 -17 1 0 11 19 11
21 64 4 87 -6 8 -5 17 3 27 8 9 8 15 2 15 -6 0 -19 3 -29 6 -16 6 -16 5 2 -9
11 -9 15 -17 8 -17 -7 0 -10 -7 -7 -15 6 -14 -5 -19 -33 -16 -7 1 -13 -5 -13
-14 0 -9 -4 -14 -9 -11 -5 4 -8 14 -6 24 1 9 -4 29 -11 43 -7 15 -11 37 -9 49
3 16 0 20 -10 16 -7 -2 -16 0 -18 7 -3 9 -8 8 -18 -2 -8 -8 -9 -11 -2 -7 13 7
22 -12 15 -36 -4 -18 -22 -25 -22 -10 0 5 -7 9 -15 9 -12 0 -11 -4 4 -19 12
-11 27 -15 37 -11 13 5 16 3 11 -10 -3 -9 -2 -17 3 -17 6 0 10 5 10 11 0 5 5
7 11 4 7 -5 4 -14 -7 -26 -10 -11 -12 -19 -6 -19 7 0 12 -7 12 -15 0 -17 -9
-19 -30 -5 -10 6 -11 10 -3 10 10 0 10 6 1 25 -12 27 -34 35 -24 9 3 -9 2 -12
-5 -9 -6 4 -8 13 -5 21 3 7 1 16 -4 19 -6 4 -10 -3 -10 -14 0 -14 -6 -21 -20
-21 -11 0 -20 -4 -20 -8 0 -4 12 -8 26 -7 17 0 32 -9 43 -25 9 -13 10 -21 4
-17 -7 5 -22 3 -34 -3 -19 -11 -20 -10 -9 10 6 11 16 17 22 14 6 -4 8 -3 5 3
-9 14 -53 8 -49 -6 1 -7 -2 -10 -8 -6 -6 3 -7 11 -4 17 4 7 2 8 -4 4 -11 -7
-6 -36 7 -36 4 0 8 -6 8 -14 0 -10 -10 -5 -29 12 -28 27 -36 38 -19 28 5 -3
12 1 15 10 9 24 7 29 -6 16 -7 -7 -17 -8 -30 -1 -12 7 -18 6 -18 -1 0 -15 -24
9 -35 35 -4 11 -7 26 -6 32 2 15 -39 73 -52 73 -5 0 3 -14 17 -31z"/>
</g>
</svg>
