<?xml version="1.0" encoding="UTF-8"?>
<svg version="1.1" xmlns="http://www.w3.org/2000/svg" width="96" height="96">
<path d="M0 0 C7.90733205 6.12036435 12.51423207 13.49558754 14.25 23.375 C15.24036667 33.76009489 13.64009083 43.00177753 7.25 51.375 C8.735 51.87 8.735 51.87 10.25 52.375 C10.25 53.695 10.25 55.015 10.25 56.375 C9.35796875 56.14296875 8.4659375 55.9109375 7.546875 55.671875 C3.48576183 55.30618235 2.58287822 56.08007369 -0.5 58.625 C-8.93494129 64.93232177 -17.33480672 66.34321186 -27.75 65.375 C-36.53445162 64.02761043 -44.75319278 59.30152017 -50.37890625 52.3671875 C-50.79011719 51.75101563 -51.20132813 51.13484375 -51.625 50.5 C-53.8723983 47.1950025 -54.99254998 46.41873612 -58.75 45.375 C-59.75 44.375 -59.75 44.375 -59.9375 42.0625 C-59.75 39.375 -59.75 39.375 -58.734375 37.55859375 C-57.48084413 34.77794391 -57.65636064 32.78470855 -57.8125 29.75 C-57.9346455 18.55332907 -54.24027199 10.70334438 -46.75 2.375 C-33.42514613 -9.41605774 -14.455249 -9.79289474 0 0 Z " fill="#CDDFF2" transform="translate(69.75,18.625)"/>
<path d="M0 0 C2.99358859 2.58005983 4.45566888 5.54324813 6.1875 9.0625 C6.71730469 10.12597656 7.24710938 11.18945312 7.79296875 12.28515625 C9 15 9 15 9 17 C10.299375 16.95875 11.59875 16.9175 12.9375 16.875 C17.83591302 16.85944948 22.28176811 17.7507282 27 19 C25.51699188 22.73619726 23.49129855 24.14459511 20.3125 26.5 C17.7030021 28.96359945 16.16739333 30.75683575 15.68066406 34.37158203 C15.57442091 40.28542269 16.18903618 46.14772727 17 52 C15.92363281 51.34128906 14.84726562 50.68257812 13.73828125 50.00390625 C6.30526959 45.4042093 6.30526959 45.4042093 -2.03271484 44.30810547 C-6.11571779 45.86580123 -9.47279374 48.48211738 -13 51 C-13.99 51 -14.98 51 -16 51 C-15.78859375 49.76765625 -15.5771875 48.5353125 -15.359375 47.265625 C-13.92709981 38.37318288 -13.92709981 38.37318288 -16.13037109 29.92236328 C-19.24105357 26.00852545 -22.98827392 22.95135795 -27 20 C-23.27933528 17.51955685 -20.13459526 17.55618827 -15.8125 17.375 C-15.06291016 17.33632813 -14.31332031 17.29765625 -13.54101562 17.2578125 C-11.69440801 17.16371784 -9.8472381 17.08077681 -8 17 C-7.73445313 16.13117187 -7.46890625 15.26234375 -7.1953125 14.3671875 C-6.01952389 11.05499868 -4.5922222 8.18613522 -2.875 5.125 C-2.33617188 4.15820312 -1.79734375 3.19140625 -1.2421875 2.1953125 C-0.83226563 1.47085937 -0.42234375 0.74640625 0 0 Z " fill="#715B48" transform="translate(48,20)"/>
<path d="M0 0 C3.25188586 0.61543956 6.50109779 1.24401486 9.75 1.875 C11.13058594 2.13603516 11.13058594 2.13603516 12.5390625 2.40234375 C13.87324219 2.66337891 13.87324219 2.66337891 15.234375 2.9296875 C16.45979004 3.16534424 16.45979004 3.16534424 17.70996094 3.40576172 C20.01937942 4.00502873 21.91324926 4.85605833 24 6 C24.99 5.34 25.98 4.68 27 4 C29.48636429 3.35790137 31.9222415 2.80204696 34.4375 2.3125 C35.10587891 2.17005859 35.77425781 2.02761719 36.46289062 1.88085938 C39.91359643 1.19345415 42.65989694 0.727173 46 2 C45.3503125 2.51046875 44.700625 3.0209375 44.03125 3.546875 C38.79063785 8.01800069 38.79063785 8.01800069 36.40234375 14.26953125 C36.4339135 17.22656491 36.59861525 20.07137795 37 23 C36.34 23 35.68 23 35 23 C35.99 24.65 36.98 26.3 38 28 C34.84556498 26.81708687 31.94814514 25.42616277 29 23.8125 C26.53855886 22.58637167 25.2784225 22 22.5 22 C19.48604886 23.20558045 16.62837383 24.62414332 13.76953125 26.16015625 C12 27 12 27 10 27 C9.04683216 22.97551355 9.17653119 20.20566356 10.0625 16.25 C10.57666756 12.39958612 10.2460008 11.32309888 7.84375 8.16796875 C5.3049786 5.67555132 2.68310165 3.33415697 0 1 C0 0.67 0 0.34 0 0 Z " fill="#F4EBA3" transform="translate(25,41)"/>
<path d="M0 0 C0.99 0 1.98 0 3 0 C3.44085938 1.37285156 3.44085938 1.37285156 3.890625 2.7734375 C5.31260138 6.54085769 6.67540802 9.70291816 9 13 C12.30181451 14.34707233 14.93903553 14.67142219 18.48828125 14.82421875 C19.31714844 14.88222656 20.14601562 14.94023438 21 15 C21.495 15.99 21.495 15.99 22 17 C3.66549112 21.95584753 3.66549112 21.95584753 -5 20 C-6.15242188 19.7525 -7.30484375 19.505 -8.4921875 19.25 C-11.67246157 18.5387129 -14.83800434 17.78802086 -18 17 C-17.67 16.34 -17.34 15.68 -17 15 C-14.49609375 14.5859375 -14.49609375 14.5859375 -11.4375 14.375 C-10.42558594 14.30023438 -9.41367187 14.22546875 -8.37109375 14.1484375 C-7.58863281 14.09945312 -6.80617188 14.05046875 -6 14 C-5.7525 13.175 -5.505 12.35 -5.25 11.5 C-3.81295189 7.47626529 -1.97645485 3.78020976 0 0 Z " fill="#F8EFA5" transform="translate(47,24)"/>
<path d="M0 0 C-0.6496875 0.51046875 -1.299375 1.0209375 -1.96875 1.546875 C-7.20936215 6.01800069 -7.20936215 6.01800069 -9.59765625 12.26953125 C-9.5660865 15.22656491 -9.40138475 18.07137795 -9 21 C-13.34496412 18.80125305 -15.32210694 16.4631551 -17.8125 12.3125 C-18.41707031 11.31863281 -19.02164063 10.32476562 -19.64453125 9.30078125 C-20.09183594 8.54152344 -20.53914063 7.78226563 -21 7 C-22.65 7.33 -24.3 7.66 -26 8 C-25 5 -25 5 -22.4140625 3.421875 C-18.73977286 1.89162165 -15.27875909 1.01667012 -11.375 0.25 C-10.08335938 -0.01296875 -8.79171875 -0.2759375 -7.4609375 -0.546875 C-4.4583336 -0.93999244 -2.78051673 -1.04445806 0 0 Z " fill="#E6D259" transform="translate(71,43)"/>
<path d="M0 0 C0.33 0 0.66 0 1 0 C1.1963696 2.37456165 1.38231294 4.74920019 1.5625 7.125 C1.61857422 7.79015625 1.67464844 8.4553125 1.73242188 9.140625 C2.04898364 13.44586499 1.7284638 16.62921718 1 21 C-5.27 19.68 -11.54 18.36 -18 17 C-17.67 16.34 -17.34 15.68 -17 15 C-14.49609375 14.5859375 -14.49609375 14.5859375 -11.4375 14.375 C-10.42558594 14.30023438 -9.41367187 14.22546875 -8.37109375 14.1484375 C-7.58863281 14.09945312 -6.80617188 14.05046875 -6 14 C-5.7525 13.175 -5.505 12.35 -5.25 11.5 C-3.81295189 7.47626529 -1.97645485 3.78020976 0 0 Z " fill="#F1DE5C" transform="translate(47,24)"/>
<path d="M0 0 C2.99358859 2.58005983 4.45566888 5.54324813 6.1875 9.0625 C6.71730469 10.12597656 7.24710938 11.18945312 7.79296875 12.28515625 C9 15 9 15 9 17 C11.97 17 14.94 17 18 17 C16 19 16 19 12.25 19.375 C10.109375 19.08984375 10.109375 19.08984375 8 18 C5.4432416 14.22394716 3.68349681 10.22787268 2 6 C1.67 8.64 1.34 11.28 1 14 C0.67 14 0.34 14 0 14 C-0.33 11.36 -0.66 8.72 -1 6 C-1.37511719 6.85464844 -1.75023438 7.70929687 -2.13671875 8.58984375 C-2.90435547 10.24693359 -2.90435547 10.24693359 -3.6875 11.9375 C-4.18636719 13.03964844 -4.68523438 14.14179687 -5.19921875 15.27734375 C-7 18 -7 18 -9.4375 18.875 C-14.06289308 19.10062893 -14.06289308 19.10062893 -16.3125 19.0625 C-18.1378125 19.0315625 -18.1378125 19.0315625 -20 19 C-16.09971775 16.39981184 -12.52565431 16.84914486 -8 17 C-7.79375 16.236875 -7.5875 15.47375 -7.375 14.6875 C-5.44105609 9.50101406 -2.7214854 4.80966916 0 0 Z " fill="#654E42" transform="translate(48,20)"/>
<path d="M0 0 C1 1 1 1 1.25 3.4375 C1.1675 4.283125 1.085 5.12875 1 6 C-2 8 -2 8 -4.6875 7.625 C-5.450625 7.41875 -6.21375 7.2125 -7 7 C-7.103125 6.360625 -7.20625 5.72125 -7.3125 5.0625 C-7.539375 4.381875 -7.76625 3.70125 -8 3 C-8.99 2.67 -9.98 2.34 -11 2 C-10.67 1.34 -10.34 0.68 -10 0 C-6.36734974 -1.10997647 -3.64453551 -1.01237097 0 0 Z " fill="#F1BA17" transform="translate(83,11)"/>
<path d="M0 0 C1.98 0.66 3.96 1.32 6 2 C6.125 4.375 6.125 4.375 6 7 C5.34 7.66 4.68 8.32 4 9 C-0.55555556 8.44444444 -0.55555556 8.44444444 -2 7 C-2.1875 4.5625 -2.1875 4.5625 -2 2 C-1.34 1.34 -0.68 0.68 0 0 Z " fill="#F9CF5C" transform="translate(12,56)"/>
<path d="M0 0 C3.73487777 0.4979837 5.81237635 0.87491756 9 3 C11.38082853 3.60421492 13.77975094 4.1390323 16.1875 4.625 C17.45980469 4.88539062 18.73210938 5.14578125 20.04296875 5.4140625 C21.01878906 5.60742188 21.99460937 5.80078125 23 6 C23.66 5.01 24.32 4.02 25 3 C25 4.32 25 5.64 25 7 C25.99 7.33 26.98 7.66 28 8 C27.34 8 26.68 8 26 8 C25.67 8.66 25.34 9.32 25 10 C24.34 10 23.68 10 23 10 C23 9.34 23 8.68 23 8 C16.4 6.68 9.8 5.36 3 4 C3 3.01 3 2.02 3 1 C2.01 0.67 1.02 0.34 0 0 Z " fill="#85704B" transform="translate(24,38)"/>
<path d="M0 0 C0.5465625 0.22816406 1.093125 0.45632812 1.65625 0.69140625 C0.66625 1.02140625 -0.32375 1.35140625 -1.34375 1.69140625 C-4.68823818 3.48863766 -7.99935945 5.34099848 -11.3125 7.1953125 C-14.34375 8.69140625 -14.34375 8.69140625 -17.34375 8.69140625 C-17.34375 7.04140625 -17.34375 5.39140625 -17.34375 3.69140625 C-16.7971875 4.08199219 -16.250625 4.47257812 -15.6875 4.875 C-13.26750769 6.0147726 -13.26750769 6.0147726 -10.6875 4.5390625 C-9.7490625 3.94996094 -8.810625 3.36085938 -7.84375 2.75390625 C-2.83934471 -0.37384705 -2.83934471 -0.37384705 0 0 Z " fill="#5F4843" transform="translate(49.34375,62.30859375)"/>
<path d="M0 0 C1.32 0 2.64 0 4 0 C4 1.65 4 3.3 4 5 C2.68 5 1.36 5 0 5 C0 3.35 0 1.7 0 0 Z " fill="#68AACF" transform="translate(22,81)"/>
<path d="M0 0 C1.65 0 3.3 0 5 0 C5 1.32 5 2.64 5 4 C3.35 4 1.7 4 0 4 C0 2.68 0 1.36 0 0 Z " fill="#72A2D5" transform="translate(81,21)"/>
<path d="M0 0 C0.99 0.33 1.98 0.66 3 1 C2.67 2.32 2.34 3.64 2 5 C0.68 4.67 -0.64 4.34 -2 4 C-2 3.01 -2 2.02 -2 1 C-1.34 0.67 -0.68 0.34 0 0 Z " fill="#789ECE" transform="translate(12,25)"/>
<path d="M0 0 C1.32 0 2.64 0 4 0 C4 1.32 4 2.64 4 4 C2.35 3.67 0.7 3.34 -1 3 C-0.67 2.01 -0.34 1.02 0 0 Z " fill="#FBCC58" transform="translate(76,71)"/>
<path d="M0 0 C1.32 0.33 2.64 0.66 4 1 C3.67 2.32 3.34 3.64 3 5 C2.01 5 1.02 5 0 5 C0 3.35 0 1.7 0 0 Z " fill="#F9FBFD" transform="translate(16,49)"/>
</svg>
